<?xml version="1.0" standalone="no"?>
<!DOCTYPE svg PUBLIC "-//W3C//DTD SVG 20010904//EN"
 "http://www.w3.org/TR/2001/REC-SVG-20010904/DTD/svg10.dtd">
<svg version="1.0" xmlns="http://www.w3.org/2000/svg"
 width="1250.000000pt" height="1280.000000pt" viewBox="0 0 1250.000000 1280.000000"
 preserveAspectRatio="xMidYMid meet">
<metadata>
Created by potrace 1.15, written by Peter Selinger 2001-2017
</metadata>
<g transform="translate(0.000000,1280.000000) scale(0.100000,-0.100000)"
fill="#000000" stroke="none">
<path d="M6535 11646 c-819 -93 -807 -92 -835 -114 -18 -14 -19 -20 -8 -34 17
-21 879 -494 937 -514 25 -8 88 -18 140 -20 83 -5 202 8 881 95 445 57 803
108 828 117 45 17 52 32 25 56 -22 18 -923 461 -973 478 -19 6 -87 13 -150 15
-96 4 -233 -9 -845 -79z"/>
<path d="M4452 11414 c-875 -98 -929 -107 -920 -151 4 -20 829 -543 886 -562
20 -7 89 -15 152 -18 105 -4 190 5 973 106 472 61 875 115 896 121 50 13 76
40 58 62 -6 9 -213 127 -459 262 -492 272 -504 277 -668 275 -47 -1 -460 -43
-918 -95z"/>
<path d="M2208 11165 c-504 -57 -941 -110 -971 -119 -58 -17 -83 -37 -74 -60
5 -13 252 -201 663 -504 200 -147 176 -147 1264 -8 1017 131 1106 143 1140
161 41 21 52 38 37 58 -23 30 -821 531 -877 550 -115 40 -189 35 -1182 -78z"/>
<path d="M7695 11030 c-412 -54 -767 -103 -787 -109 -20 -7 -44 -19 -53 -27
-15 -15 -15 -18 1 -35 31 -35 1022 -571 1082 -586 126 -31 209 -23 1032 101
426 64 790 119 808 122 43 8 83 40 75 61 -8 21 -1056 539 -1130 558 -110 29
-234 18 -1028 -85z"/>
<path d="M1062 10893 c-6 -16 -13 -42 -17 -58 -3 -17 26 -452 65 -967 73 -968
80 -1029 129 -1126 21 -41 83 -101 506 -486 143 -130 268 -236 277 -236 21 0
44 33 53 76 9 45 -101 1910 -120 2022 -18 109 -59 205 -106 248 -77 70 -738
554 -756 554 -13 0 -24 -10 -31 -27z"/>
<path d="M5600 10760 c-459 -60 -858 -114 -887 -120 -65 -14 -98 -39 -89 -66
7 -22 936 -610 998 -631 60 -20 199 -31 285 -22 113 11 1761 258 1806 270 50
13 81 43 68 67 -5 9 -240 144 -521 300 -565 313 -565 312 -735 311 -51 -1
-449 -48 -925 -109z"/>
<path d="M3245 10456 c-517 -68 -956 -127 -975 -131 -19 -4 -52 -16 -72 -26
-75 -38 -78 -35 401 -392 246 -183 459 -335 483 -343 27 -10 90 -18 168 -21
122 -5 153 0 1129 146 1083 162 1096 165 1096 221 0 21 -59 62 -484 331 -266
169 -502 312 -525 319 -22 6 -95 13 -161 15 -109 4 -208 -8 -1060 -119z"/>
<path d="M9860 10463 c-100 -10 -1632 -245 -1659 -254 -17 -6 -36 -20 -42 -31
-9 -17 -7 -25 12 -43 34 -32 1122 -626 1188 -648 33 -11 97 -21 156 -24 95 -5
141 2 934 141 458 80 845 152 859 158 43 22 50 44 22 72 -36 34 -1183 595
-1250 611 -61 15 -166 23 -220 18z"/>
<path d="M2050 10170 c-11 -11 -22 -31 -25 -45 -3 -14 -7 -36 -10 -49 -3 -13
4 -170 15 -348 11 -177 35 -606 55 -953 19 -346 41 -666 49 -710 18 -103 49
-185 89 -235 41 -51 832 -768 863 -782 19 -9 28 -8 43 6 37 34 42 92 31 344
-14 330 -27 660 -50 1277 -11 292 -25 557 -31 590 -16 91 -47 179 -80 224 -19
27 -183 156 -469 371 -242 182 -445 330 -450 330 -6 0 -19 -9 -30 -20z"/>
<path d="M7730 10144 c-8 -2 -411 -62 -895 -134 -947 -142 -967 -146 -973
-201 -3 -25 31 -48 546 -372 391 -246 566 -351 608 -364 45 -13 90 -18 189
-17 122 0 186 10 1020 158 490 86 907 161 928 167 41 11 77 40 77 62 0 8 -8
21 -17 30 -10 8 -275 158 -590 332 -630 348 -625 346 -793 344 -47 -1 -92 -3
-100 -5z"/>
<path d="M5395 9793 c-16 -2 -462 -69 -990 -149 -528 -79 -984 -151 -1014
-160 -50 -14 -101 -51 -101 -73 0 -6 12 -22 28 -35 74 -66 979 -730 1015 -746
66 -29 170 -43 276 -37 57 3 514 79 1124 186 1066 187 1097 194 1112 242 4 10
2 26 -4 36 -14 26 -1073 695 -1134 716 -52 18 -247 31 -312 20z"/>
<path d="M11280 9673 c-266 -43 -1569 -277 -1606 -288 -88 -26 -162 -107 -199
-216 -15 -44 -165 -1862 -165 -1998 0 -79 21 -126 69 -158 47 -32 82 -29 272
17 90 21 438 105 773 185 335 80 624 153 642 161 70 33 149 142 168 229 3 17
55 451 116 965 79 675 107 945 101 971 -21 93 -89 145 -171 132z"/>
<path d="M3199 9316 c-35 -17 -48 -67 -48 -193 -1 -133 66 -1932 74 -2017 9
-84 50 -206 88 -261 17 -25 253 -246 522 -491 464 -421 492 -444 525 -442 27
2 38 10 55 38 18 32 20 50 18 185 -19 1573 -25 1997 -33 2081 -6 60 -19 128
-33 166 -51 142 -33 125 -595 546 -284 214 -524 391 -533 394 -9 4 -27 1 -40
-6z"/>
<path d="M8415 9170 c-1218 -217 -1099 -193 -1159 -233 -66 -44 -130 -136
-146 -210 -15 -71 -82 -2095 -70 -2135 26 -91 84 -137 170 -136 73 1 1759 405
1818 435 24 12 63 44 87 71 83 93 78 52 161 1122 40 528 74 985 74 1016 -1
119 -75 202 -178 199 -20 -1 -361 -59 -757 -129z"/>
<path d="M5690 8689 c-749 -133 -1018 -184 -1054 -201 -70 -32 -132 -97 -169
-176 l-32 -67 2 -175 c5 -400 33 -1882 37 -1972 5 -115 27 -165 92 -211 80
-56 70 -58 864 132 393 95 839 201 990 238 151 36 291 74 311 84 51 25 123
100 149 154 12 25 26 73 31 108 5 34 23 516 40 1071 33 1122 35 1065 -34 1136
-44 45 -85 60 -159 59 -35 -1 -515 -82 -1068 -180z"/>
<path d="M1236 8558 c-23 -33 -21 -92 29 -756 25 -328 52 -691 60 -807 18
-236 27 -291 63 -388 24 -66 39 -84 384 -450 197 -210 368 -386 380 -392 16
-7 24 -4 39 14 15 18 19 40 19 96 0 168 -101 1772 -116 1835 -16 71 -55 164
-82 194 -49 55 -734 676 -746 676 -8 0 -22 -10 -30 -22z"/>
<path d="M2194 7702 c-42 -28 -42 -79 -9 -639 13 -230 36 -612 50 -848 27
-456 35 -517 89 -623 26 -52 834 -917 865 -927 10 -3 26 -3 34 1 41 15 42 46
8 916 -40 1054 -43 1096 -75 1191 -14 40 -35 91 -47 112 -24 41 -873 825 -892
825 -7 0 -17 -4 -23 -8z"/>
<path d="M10265 7065 c-412 -100 -770 -188 -795 -196 -64 -19 -160 -116 -188
-190 -18 -48 -30 -181 -92 -954 -39 -494 -69 -914 -65 -933 4 -21 21 -50 40
-69 28 -28 40 -33 82 -33 34 0 264 64 788 221 407 122 756 229 776 239 48 25
106 92 136 157 22 48 35 144 124 895 54 463 99 865 99 893 0 30 -7 64 -18 84
-21 38 -74 71 -112 70 -14 0 -362 -83 -775 -184z"/>
<path d="M8095 6540 c-473 -115 -875 -216 -893 -225 -82 -38 -171 -156 -186
-245 -3 -19 -20 -455 -37 -968 -30 -924 -31 -933 -12 -970 29 -54 75 -82 137
-82 39 0 260 62 856 240 443 132 824 247 847 256 88 32 169 115 200 207 17 48
156 1828 147 1872 -16 79 -75 126 -156 124 -23 0 -430 -94 -903 -209z"/>
<path d="M3280 6682 c-13 -10 -25 -36 -30 -60 -6 -37 48 -1664 64 -1883 3 -42
12 -106 21 -141 34 -133 60 -165 527 -661 476 -505 518 -547 547 -547 11 0 29
12 40 26 20 26 21 38 20 293 0 146 -6 610 -14 1031 -14 836 -12 811 -76 951
-37 81 -48 92 -604 601 -370 339 -449 408 -468 408 -3 0 -15 -8 -27 -18z"/>
<path d="M1391 6401 c-6 -11 -11 -44 -11 -73 0 -115 111 -1547 125 -1613 28
-130 54 -167 390 -570 372 -446 389 -464 412 -449 9 6 20 24 25 39 6 25 -19
496 -77 1440 -23 374 -36 411 -217 605 -448 482 -596 635 -615 638 -14 2 -26
-4 -32 -17z"/>
<path d="M5702 5960 c-740 -180 -996 -246 -1034 -267 -94 -51 -168 -160 -176
-261 -5 -64 26 -1864 34 -1939 3 -29 15 -67 27 -85 28 -42 99 -78 152 -78 22
0 137 29 255 64 1233 368 1668 500 1699 515 77 40 164 157 176 238 13 87 63
1884 54 1919 -21 73 -105 136 -180 133 -13 0 -466 -108 -1007 -239z"/>
<path d="M2302 5415 c-16 -34 -15 -127 3 -418 8 -133 29 -478 45 -767 32 -545
38 -593 88 -711 23 -52 806 -1000 843 -1019 18 -10 25 -9 43 9 28 29 29 -44
-29 1420 -22 544 -14 523 -328 859 -122 131 -309 331 -416 445 -204 217 -226
233 -249 182z"/>
<path d="M10018 4806 c-444 -135 -754 -234 -782 -250 -65 -38 -126 -117 -147
-190 -5 -17 -39 -397 -74 -845 -70 -876 -70 -860 -18 -901 54 -42 72 -37 842
235 397 140 734 263 750 274 46 33 102 100 123 148 28 64 212 1614 197 1667
-14 51 -61 86 -112 85 -24 0 -356 -95 -779 -223z"/>
<path d="M7965 4186 c-456 -139 -844 -259 -861 -268 -50 -27 -131 -123 -152
-181 -18 -47 -22 -123 -47 -856 -15 -443 -25 -835 -23 -872 3 -55 8 -73 27
-93 31 -33 83 -50 130 -42 42 7 1602 556 1650 581 48 24 107 88 136 145 33 64
30 40 101 966 57 736 58 763 41 798 -23 48 -70 76 -127 75 -28 -1 -359 -96
-875 -253z"/>
<path d="M3360 4295 c-24 -29 -28 -89 -19 -317 64 -1647 56 -1529 108 -1658
29 -71 4 -39 519 -658 309 -370 451 -534 469 -538 18 -5 31 -1 46 15 26 26 25
-44 14 896 -11 872 -17 996 -51 1094 -14 41 -37 93 -51 116 -23 39 -903 991
-963 1042 -31 27 -55 29 -72 8z"/>
<path d="M6605 3775 c-5 -2 -415 -126 -910 -275 -495 -149 -920 -278 -944
-287 -62 -24 -155 -113 -186 -178 -24 -52 -25 -60 -25 -262 1 -394 29 -1589
38 -1613 11 -27 45 -61 79 -79 60 -31 87 -22 1013 304 491 173 912 326 935
339 56 33 112 97 141 161 l24 53 27 862 c27 858 27 862 8 898 -30 54 -77 82
-139 81 -28 0 -55 -2 -61 -4z"/>
</g>
</svg>
