<?xml version="1.0" standalone="no"?>
<!DOCTYPE svg PUBLIC "-//W3C//DTD SVG 20010904//EN"
 "http://www.w3.org/TR/2001/REC-SVG-20010904/DTD/svg10.dtd">
<svg version="1.0" xmlns="http://www.w3.org/2000/svg"
 width="1280.000000pt" height="780.000000pt" viewBox="0 0 1280.000000 780.000000"
 preserveAspectRatio="xMidYMid meet">
<metadata>
Created by potrace 1.15, written by Peter Selinger 2001-2017
</metadata>
<g transform="translate(0.000000,780.000000) scale(0.100000,-0.100000)"
fill="#000000" stroke="none">
<path d="M504 7535 c-4 -8 -9 -39 -13 -68 l-7 -52 -39 63 c-24 37 -47 62 -57
62 -29 0 -21 -24 35 -112 l54 -83 -13 -126 c-39 -400 -44 -1088 -10 -1434 53
-525 160 -995 311 -1366 42 -103 131 -284 176 -361 l22 -36 -29 -232 -30 -232
1104 -1077 1105 -1076 1026 -126 c1648 -203 2052 -252 3046 -374 517 -64 1179
-145 1470 -181 2798 -343 3049 -373 3053 -369 2 2 41 311 87 687 46 376 176
1443 290 2372 113 929 203 1691 200 1694 -3 4 -239 35 -523 69 -284 35 -1075
131 -1757 213 -1822 221 -3637 441 -5031 611 -677 82 -1240 149 -1251 149 -12
0 -456 -254 -987 -565 -532 -311 -970 -565 -974 -565 -5 0 -30 55 -56 122
-211 537 -619 1310 -1094 2070 l-92 146 11 81 c6 45 8 88 5 96 -7 19 -25 19
-32 0z m219 -590 c444 -737 763 -1357 956 -1852 l39 -102 -211 -124 c-117 -68
-271 -158 -342 -200 l-131 -77 -28 -237 c-16 -131 -32 -242 -36 -246 -11 -12
-142 261 -198 413 -162 435 -260 947 -293 1540 -14 244 -6 756 16 1005 8 94
15 181 15 195 l0 25 20 -25 c10 -14 97 -155 193 -315z m1469 -2544 c124 -43
213 -123 275 -248 31 -64 36 -84 41 -168 6 -118 -14 -200 -67 -283 -209 -322
-678 -289 -835 58 -13 30 -26 66 -28 80 -3 22 1 25 45 32 68 9 148 51 191 98
73 81 101 173 101 333 0 100 1 108 20 112 11 2 29 6 40 9 39 9 161 -4 217 -23z
m-324 -133 c-4 -108 -8 -130 -32 -186 -16 -34 -46 -77 -66 -96 -41 -37 -134
-76 -180 -76 -27 0 -30 3 -30 33 0 160 88 321 224 409 90 58 89 59 84 -84z"/>
</g>
</svg>
