<?xml version="1.0" standalone="no"?>
<!DOCTYPE svg PUBLIC "-//W3C//DTD SVG 20010904//EN"
 "http://www.w3.org/TR/2001/REC-SVG-20010904/DTD/svg10.dtd">
<svg version="1.0" xmlns="http://www.w3.org/2000/svg"
 width="1280.000000pt" height="642.000000pt" viewBox="0 0 1280.000000 642.000000"
 preserveAspectRatio="xMidYMid meet">
<metadata>
Created by potrace 1.15, written by Peter Selinger 2001-2017
</metadata>
<g transform="translate(0.000000,642.000000) scale(0.100000,-0.100000)"
fill="#000000" stroke="none">
<path d="M4780 4836 c-872 -871 -2304 -2300 -3182 -3176 -1167 -1163 -1598
-1599 -1598 -1615 0 -13 6 -28 14 -34 10 -8 1684 -10 6392 -9 l6379 3 10 28
c9 29 -12 50 -1420 1455 -787 784 -2220 2214 -3185 3179 -1660 1658 -1757
1753 -1790 1753 -33 0 -121 -86 -1620 -1584z m1600 671 l0 -894 -96 -124 c-54
-68 -97 -125 -98 -126 -1 0 -62 -6 -136 -12 -74 -6 -193 -18 -263 -27 -70 -9
-129 -15 -131 -13 -2 2 -50 264 -106 582 l-102 579 28 29 c33 35 37 30 48 -63
5 -40 12 -58 22 -58 8 0 14 1 14 3 0 1 -7 40 -14 87 l-14 85 31 33 32 33 12
-76 c7 -43 14 -80 17 -83 16 -15 18 16 7 95 l-12 86 34 35 34 34 8 -76 c6 -67
17 -97 31 -84 2 2 -1 44 -7 93 l-11 88 35 35 35 34 7 -81 c5 -62 11 -81 22
-81 11 0 13 9 9 38 -21 139 -20 145 17 180 l35 34 6 -39 c3 -21 8 -77 12 -125
5 -69 10 -88 21 -88 12 0 14 8 10 38 -4 20 -9 84 -13 142 l-6 105 36 34 36 35
0 -50 c0 -67 11 -124 23 -124 6 0 8 34 4 98 l-6 99 40 38 39 39 0 -64 c0 -74
8 -110 23 -110 7 0 8 33 4 98 l-6 99 40 38 39 39 0 -64 c0 -72 8 -110 21 -110
5 0 9 46 9 103 l0 103 40 39 40 39 0 -92 c0 -55 4 -92 10 -92 6 0 10 41 10
102 l0 102 37 38 c20 21 38 38 40 38 2 0 3 -402 3 -893z m75 862 l35 -31 0
-105 c0 -79 3 -104 13 -101 8 3 13 32 15 88 l3 83 39 -38 40 -39 0 -103 c0
-62 4 -103 10 -103 6 0 10 31 10 73 0 96 8 106 49 63 l33 -34 -3 -98 c-2 -59
1 -98 6 -97 11 2 11 3 20 97 l7 68 35 -33 35 -34 -4 -97 c-2 -61 1 -98 7 -98
6 0 11 12 13 27 1 15 5 52 8 82 l6 54 35 -35 35 -36 -12 -137 c-6 -75 -9 -140
-5 -143 14 -14 24 28 30 135 4 62 10 113 13 113 3 0 20 -14 37 -30 30 -29 31
-32 24 -88 -11 -83 -10 -132 1 -132 9 0 13 18 25 114 l7 49 34 -34 33 -34 -9
-65 c-12 -83 -12 -120 -1 -120 10 0 16 25 27 108 l6 54 32 -31 33 -32 -12 -87
c-7 -48 -10 -90 -8 -95 10 -18 22 7 29 61 11 93 15 98 48 63 l29 -31 -12 -85
c-13 -83 -9 -115 9 -85 5 8 12 43 16 77 3 35 9 63 13 63 4 0 19 -13 34 -28
l27 -28 -102 -574 c-55 -316 -105 -579 -109 -584 -4 -5 -42 -4 -87 3 -79 12
-378 41 -419 41 -16 0 -48 34 -122 129 l-101 130 0 890 c0 490 2 891 5 891 2
0 20 -14 40 -31z m-931 -1479 c53 -300 98 -555 101 -566 4 -20 -3 -23 -108
-43 -147 -30 -347 -81 -487 -126 -61 -20 -113 -35 -115 -33 -6 5 -215 585
-215 595 0 5 10 19 23 31 l23 22 23 -70 c12 -39 26 -70 32 -70 14 0 11 16 -13
92 l-22 68 25 25 25 25 23 -70 c12 -38 26 -70 32 -70 12 0 12 1 -13 86 l-21
75 25 25 25 26 18 -66 c17 -63 30 -85 42 -73 3 3 -5 40 -18 82 l-22 76 25 26
26 25 16 -58 c24 -83 24 -84 36 -84 14 0 13 14 -11 92 l-20 70 22 24 c12 13
25 24 29 24 3 0 16 -43 30 -96 24 -96 49 -151 50 -109 0 11 -13 68 -29 127
l-28 107 27 26 28 26 17 -70 c11 -48 22 -71 32 -71 9 0 12 6 9 18 -3 9 -12 46
-21 81 -16 63 -16 64 6 87 12 13 26 24 29 24 4 0 13 -26 20 -59 13 -64 25 -89
36 -78 4 4 -1 43 -11 87 l-18 80 23 25 c13 14 26 25 30 25 4 0 12 -31 19 -70
9 -50 17 -70 28 -70 8 0 13 6 10 13 -2 6 -10 45 -17 85 -13 71 -13 73 10 97
13 14 26 25 30 25 4 0 12 -31 19 -70 9 -50 17 -70 28 -70 8 0 13 6 10 13 -2 6
-10 45 -17 85 l-13 72 29 31 c16 16 30 26 31 22 1 -4 45 -253 97 -553z m1892
420 c-9 -46 -14 -86 -11 -88 12 -12 25 16 36 79 l12 70 30 -29 29 -29 -17 -82
c-16 -79 -14 -112 5 -81 5 7 14 43 21 78 l12 64 29 -29 29 -30 -15 -67 c-9
-37 -16 -77 -16 -89 1 -41 26 8 39 74 l12 61 29 -27 28 -27 -15 -61 c-7 -34
-17 -73 -20 -86 -4 -17 -2 -22 8 -19 10 3 41 90 48 137 2 12 51 -45 51 -58 -1
-9 -14 -63 -30 -121 -16 -58 -25 -109 -20 -114 12 -12 24 18 50 122 12 50 25
92 29 92 4 0 17 -10 29 -23 l21 -23 -19 -64 c-11 -36 -20 -73 -20 -83 0 -34
20 -6 36 51 9 31 19 60 23 65 4 4 18 -4 30 -17 l23 -25 -21 -69 c-23 -78 -25
-92 -12 -92 5 0 19 32 31 72 l22 71 25 -25 25 -25 -21 -70 c-23 -77 -25 -93
-13 -93 4 0 18 32 31 71 l23 72 26 -26 25 -26 -26 -72 c-24 -69 -27 -96 -7
-84 5 3 18 35 30 71 l22 66 25 -24 24 -24 -107 -295 c-59 -162 -110 -297 -113
-301 -3 -4 -46 6 -96 23 -120 40 -364 103 -500 130 -60 11 -111 22 -113 24 -1
1 42 257 98 569 55 311 100 569 100 573 0 4 14 -6 31 -23 l31 -31 -16 -83z
m-2631 -908 c59 -162 105 -295 103 -296 -2 -1 -52 -21 -113 -45 -117 -46 -390
-176 -490 -234 l-61 -34 -83 145 -83 145 20 20 20 20 32 -57 c18 -31 36 -59
41 -62 19 -11 8 28 -22 82 -30 53 -31 56 -14 74 10 11 21 20 24 20 4 0 19 -25
34 -55 15 -30 31 -55 37 -55 17 0 11 21 -21 78 -29 51 -29 55 -13 73 9 10 20
19 24 19 4 0 17 -23 30 -50 13 -28 30 -56 37 -62 23 -19 15 18 -17 81 -29 58
-29 59 -10 76 24 21 21 24 54 -42 14 -28 30 -54 36 -58 19 -12 10 25 -20 84
l-29 58 23 22 23 22 46 -96 c25 -52 51 -95 57 -95 15 0 15 0 -36 110 -46 97
-46 101 -29 120 10 11 21 20 25 20 4 0 18 -27 31 -60 13 -33 29 -60 36 -60 17
0 17 1 -17 77 l-31 67 24 24 24 23 27 -65 c16 -37 32 -66 37 -66 14 0 11 15
-18 85 -26 63 -26 65 -8 85 10 11 21 20 24 20 3 0 17 -27 29 -60 13 -33 28
-60 33 -60 14 0 11 15 -16 82 l-25 62 23 24 24 24 23 -59 c25 -63 36 -80 46
-70 3 3 -6 38 -22 77 l-27 70 23 25 c13 14 25 24 26 22 1 -1 50 -134 109 -295z
m3359 192 c-40 -108 -25 -132 16 -27 29 72 26 70 50 48 26 -23 25 -28 -7 -103
-25 -59 -26 -81 -5 -68 5 3 20 33 32 67 l23 61 24 -25 25 -24 -31 -68 c-36
-78 -35 -75 -18 -75 7 0 25 28 40 62 26 60 27 61 47 43 26 -23 25 -32 -5 -97
-26 -56 -31 -78 -16 -78 5 0 21 29 37 66 l27 65 24 -23 24 -24 -46 -96 c-25
-52 -45 -100 -45 -107 0 -30 20 -3 60 82 25 50 46 94 48 96 1 3 12 -5 24 -17
l22 -22 -32 -65 c-35 -72 -36 -75 -22 -75 5 0 24 28 41 61 l31 62 21 -22 21
-21 -32 -65 c-36 -74 -37 -75 -19 -75 7 0 26 27 42 60 l29 60 21 -20 22 -21
-34 -65 c-34 -63 -38 -89 -10 -66 7 6 24 34 37 62 l24 50 22 -21 22 -21 -35
-65 c-33 -60 -38 -83 -13 -68 6 3 23 31 38 61 l28 55 21 -23 22 -23 -81 -140
c-45 -77 -82 -141 -84 -143 -1 -2 -56 26 -121 61 -127 70 -300 151 -454 212
l-97 38 13 31 c7 17 52 139 100 271 48 132 92 251 97 264 l9 24 23 -23 24 -22
-24 -64z m-4017 -681 c44 -78 73 -138 66 -140 -44 -15 -371 -245 -513 -361
-41 -34 -77 -58 -80 -54 -4 4 -33 37 -65 75 -57 67 -58 68 -39 88 l19 21 46
-54 c61 -68 75 -56 19 17 -41 53 -42 56 -25 75 17 19 18 18 62 -35 24 -30 46
-55 49 -55 14 0 -1 35 -35 78 -39 49 -40 50 -20 68 11 10 23 14 27 8 5 -5 23
-28 41 -51 30 -40 51 -54 51 -35 0 5 -18 32 -40 62 -38 51 -39 54 -23 73 17
18 18 18 38 -6 11 -13 30 -37 41 -53 39 -53 38 -15 -1 42 -38 55 -38 55 -18
75 20 20 20 20 79 -65 32 -47 62 -86 67 -86 17 0 4 27 -48 101 -30 43 -55 82
-55 87 0 5 8 16 18 25 16 15 20 12 52 -38 19 -30 41 -55 48 -55 18 0 16 6 -28
69 -37 56 -38 59 -21 75 10 9 20 16 23 16 3 0 22 -26 43 -57 49 -73 58 -52 11
24 -32 53 -33 59 -19 75 9 10 19 18 22 18 4 0 21 -25 39 -55 30 -51 52 -69 52
-45 0 5 -16 35 -36 66 -34 53 -35 56 -18 75 9 10 20 19 23 19 3 0 19 -22 34
-50 15 -27 32 -52 38 -56 24 -15 19 9 -16 66 -36 59 -36 62 -20 80 10 11 21
17 26 14 4 -2 43 -66 86 -141z m4656 129 c15 -16 13 -21 -18 -72 -19 -30 -35
-61 -35 -67 0 -27 17 -11 50 46 l35 60 22 -21 22 -21 -33 -51 c-17 -28 -35
-56 -39 -63 -4 -6 -3 -14 3 -18 5 -3 27 21 48 54 l38 60 21 -21 22 -21 -40
-58 c-43 -64 -45 -69 -26 -69 7 0 27 25 46 56 32 53 34 55 52 38 25 -23 25
-26 -16 -87 -19 -28 -35 -55 -35 -59 0 -21 20 -3 55 47 36 53 39 55 56 39 11
-10 19 -20 19 -24 0 -3 -19 -33 -43 -65 -74 -102 -81 -115 -65 -115 8 0 38 34
66 75 29 41 56 76 61 79 5 3 16 -3 25 -13 15 -16 14 -21 -24 -74 -44 -60 -46
-67 -27 -67 6 0 27 23 46 50 19 28 36 50 39 50 3 0 13 -7 23 -16 17 -15 16
-19 -22 -69 -38 -50 -48 -75 -31 -75 5 0 26 24 48 54 36 51 40 53 57 39 9 -9
17 -19 17 -23 0 -4 -18 -30 -40 -58 -43 -54 -47 -62 -27 -62 6 1 29 24 51 51
l39 51 20 -20 20 -21 -41 -49 c-41 -48 -52 -72 -33 -72 5 0 26 23 47 50 21 28
40 50 43 50 2 0 13 -7 23 -16 17 -16 16 -19 -25 -67 -23 -27 -52 -61 -63 -75
l-22 -26 -53 45 c-95 80 -254 197 -396 289 -75 50 -139 92 -141 95 -6 5 149
275 158 275 4 0 14 -8 23 -18z m-2507 -149 c54 -71 103 -134 109 -141 12 -13
59 42 220 256 9 11 38 11 185 -2 952 -84 1758 -464 2456 -1161 529 -528 877
-1124 1049 -1800 44 -171 90 -419 101 -546 l7 -69 31 0 c41 0 298 29 304 34 2
2 -4 68 -13 146 -10 77 -16 142 -14 144 2 2 265 48 584 104 l579 102 28 -27
c34 -32 26 -39 -52 -48 -31 -4 -63 -10 -70 -15 -30 -18 2 -21 90 -9 l91 13 31
-31 30 -31 -28 -5 c-16 -3 -53 -9 -81 -12 -48 -6 -65 -17 -45 -28 4 -3 45 1
91 8 l84 12 36 -32 35 -32 -69 -8 c-38 -4 -78 -11 -89 -15 -42 -16 11 -22 96
-11 l82 11 34 -32 33 -33 -28 -6 c-15 -4 -48 -7 -73 -8 -25 -1 -52 -5 -60 -11
-27 -17 12 -22 101 -12 l84 9 32 -30 c22 -21 29 -33 21 -38 -6 -4 -62 -10
-125 -14 -106 -7 -137 -15 -114 -30 6 -3 71 0 146 6 l137 12 35 -36 36 -35
-87 -7 c-57 -5 -86 -11 -83 -19 3 -10 141 -11 177 0 9 2 32 -13 54 -35 l38
-38 -86 -8 c-120 -10 -110 -27 15 -24 l100 2 35 -34 35 -34 -38 -7 c-21 -4
-59 -7 -85 -7 -27 -1 -48 -5 -48 -11 0 -6 41 -10 103 -10 l103 0 39 -40 39
-40 -93 0 c-70 0 -92 -3 -88 -12 3 -10 31 -12 103 -10 99 3 99 3 128 -27 17
-18 26 -36 23 -45 -6 -14 -47 -16 -342 -16 l-335 0 0 90 c0 53 -4 90 -10 90
-6 0 -10 -37 -10 -90 0 -89 0 -90 -25 -90 -24 0 -25 3 -25 55 0 30 -4 55 -10
55 -5 0 -10 -25 -10 -55 0 -52 -1 -55 -25 -55 -24 0 -25 3 -25 55 0 30 -4 55
-10 55 -5 0 -10 -25 -10 -55 0 -52 -1 -55 -25 -55 -24 0 -25 3 -25 56 0 73
-24 70 -28 -4 -3 -44 -6 -52 -23 -52 -17 0 -19 7 -19 56 0 73 -24 70 -28 -4
-3 -44 -6 -52 -23 -52 -17 0 -19 7 -19 91 0 68 -3 90 -12 87 -9 -3 -14 -33
-16 -91 -2 -78 -5 -87 -22 -87 -16 0 -19 9 -22 50 -4 65 -22 65 -26 0 -3 -41
-6 -50 -22 -50 -16 0 -19 9 -22 52 -4 74 -28 77 -28 3 0 -53 -1 -56 -22 -53
-19 2 -22 8 -20 35 2 18 1 42 -3 53 -12 38 -25 20 -25 -35 0 -52 -1 -55 -25
-55 -24 0 -25 3 -25 55 0 30 -4 55 -10 55 -5 0 -10 -25 -10 -55 0 -52 -1 -55
-25 -55 -25 0 -25 1 -25 90 0 53 -4 90 -10 90 -6 0 -10 -37 -10 -90 0 -89 0
-90 -25 -90 -24 0 -25 3 -25 55 0 30 -4 55 -10 55 -5 0 -10 -25 -10 -55 0 -52
-1 -55 -25 -55 -24 0 -25 3 -25 56 0 73 -24 70 -28 -4 -3 -44 -6 -52 -23 -52
-17 0 -19 7 -19 56 0 73 -24 70 -28 -4 -3 -43 -6 -52 -22 -52 -16 0 -19 9 -22
50 -2 28 -7 50 -13 50 -5 0 -11 -22 -13 -50 -3 -41 -6 -50 -22 -50 -17 0 -20
9 -22 87 -2 58 -7 88 -15 91 -10 3 -13 -19 -13 -87 0 -84 -2 -91 -19 -91 -17
0 -20 8 -23 52 -4 74 -28 77 -28 3 0 -53 -1 -56 -22 -53 -20 3 -23 10 -26 56
-4 69 -22 67 -22 -3 0 -52 -1 -55 -25 -55 -24 0 -25 3 -25 55 0 30 -4 55 -10
55 -5 0 -10 -25 -10 -55 0 -52 -1 -55 -25 -55 -24 0 -25 3 -25 55 0 30 -4 55
-10 55 -5 0 -10 -25 -10 -55 0 -52 -1 -55 -25 -55 -25 0 -25 1 -25 91 0 68 -3
90 -12 87 -9 -3 -14 -33 -16 -91 -3 -79 -5 -87 -22 -87 -18 0 -20 7 -20 56 0
73 -24 70 -28 -4 -3 -43 -6 -52 -22 -52 -16 0 -19 9 -22 50 -4 67 -22 69 -26
3 -3 -44 -6 -53 -22 -53 -16 0 -19 9 -22 52 -2 29 -7 53 -13 53 -5 0 -11 -24
-13 -53 -3 -43 -6 -52 -22 -52 -16 0 -19 9 -22 52 -4 74 -28 77 -28 4 0 -49
-2 -56 -20 -56 -18 0 -20 7 -20 59 0 32 -3 73 -6 90 -12 60 -24 30 -24 -59 0
-89 0 -90 -25 -90 -24 0 -25 3 -25 55 0 30 -4 55 -10 55 -5 0 -10 -25 -10 -55
0 -52 -1 -55 -25 -55 -24 0 -25 3 -25 55 0 30 -4 55 -10 55 -5 0 -10 -25 -10
-55 0 -52 -1 -55 -25 -55 -24 0 -25 3 -25 55 0 30 -4 55 -10 55 -5 0 -10 -25
-10 -55 0 -52 -1 -55 -25 -55 -24 0 -25 3 -25 56 0 73 -24 70 -28 -4 -3 -44
-6 -52 -23 -52 -17 0 -19 7 -19 91 0 68 -3 90 -12 87 -9 -3 -14 -33 -16 -91
-2 -78 -5 -87 -22 -87 -16 0 -19 9 -22 52 -2 29 -7 53 -13 53 -5 0 -11 -24
-13 -53 -3 -43 -6 -52 -22 -52 -16 0 -19 9 -22 52 -4 74 -28 77 -28 4 0 -49
-2 -56 -19 -56 -17 0 -20 8 -23 52 -4 74 -28 77 -28 4 0 -53 -1 -56 -25 -56
-24 0 -25 3 -25 55 0 30 -4 55 -10 55 -5 0 -10 -25 -10 -55 0 -52 -1 -55 -25
-55 -25 0 -25 1 -25 90 0 53 -4 90 -10 90 -6 0 -10 -37 -10 -90 0 -89 0 -90
-25 -90 -24 0 -25 3 -25 55 0 30 -4 55 -10 55 -5 0 -10 -25 -10 -55 0 -52 -1
-55 -25 -55 -24 0 -25 3 -25 55 0 30 -4 55 -10 55 -11 0 -11 1 -14 -60 -2 -38
-6 -46 -24 -48 -20 -3 -22 1 -22 53 0 74 -24 71 -28 -3 -3 -44 -6 -52 -23 -52
-17 0 -19 7 -19 56 0 73 -24 70 -28 -4 -3 -43 -6 -52 -22 -52 -17 0 -20 9 -22
85 -4 111 -22 111 -26 0 -2 -76 -5 -85 -22 -85 -16 0 -19 9 -22 52 -4 74 -28
77 -28 4 0 -49 -2 -56 -20 -56 -17 0 -20 7 -20 39 0 44 -8 71 -21 71 -5 0 -9
-25 -9 -55 0 -52 -1 -55 -25 -55 -24 0 -25 3 -25 55 0 30 -4 55 -10 55 -5 0
-10 -25 -10 -55 0 -52 -1 -55 -25 -55 -24 0 -25 3 -25 55 0 30 -4 55 -10 55
-5 0 -10 -25 -10 -55 0 -52 -1 -55 -25 -55 -25 0 -25 1 -25 90 0 53 -4 90 -10
90 -6 0 -10 -37 -10 -90 0 -89 0 -90 -25 -90 -24 0 -25 3 -25 55 0 30 -4 55
-10 55 -13 0 -22 -39 -18 -76 2 -24 -1 -30 -19 -32 -22 -3 -23 0 -23 53 0 74
-24 71 -28 -3 -3 -43 -6 -52 -22 -52 -16 0 -19 9 -22 50 -2 28 -7 50 -13 50
-5 0 -11 -22 -13 -50 -3 -41 -6 -50 -22 -50 -16 0 -19 9 -22 50 -4 65 -22 65
-26 0 -3 -41 -6 -50 -22 -50 -17 0 -20 9 -22 87 -2 58 -7 88 -15 91 -10 3 -13
-19 -13 -87 0 -84 -1 -91 -20 -91 -17 0 -20 7 -20 39 0 44 -8 71 -21 71 -5 0
-9 -25 -9 -55 0 -52 -1 -55 -25 -55 -24 0 -25 3 -25 55 0 30 -4 55 -10 55 -5
0 -10 -25 -10 -55 0 -52 -1 -55 -25 -55 -24 0 -25 3 -25 55 0 30 -4 55 -10 55
-5 0 -10 -25 -10 -55 0 -52 -1 -55 -25 -55 -24 0 -25 3 -25 55 0 70 -18 72
-22 3 -3 -46 -6 -53 -25 -56 -22 -3 -23 -1 -23 88 0 69 -3 91 -12 88 -9 -3
-14 -33 -16 -91 -2 -78 -5 -87 -22 -87 -16 0 -19 9 -22 52 -4 68 -22 68 -26 1
-3 -44 -6 -53 -22 -53 -16 0 -19 9 -22 53 -4 67 -22 67 -26 0 -3 -44 -6 -53
-22 -53 -16 0 -19 9 -22 52 -4 74 -28 77 -28 4 0 -49 -2 -56 -19 -56 -17 0
-20 8 -23 52 -4 74 -28 77 -28 4 0 -53 -1 -56 -25 -56 -25 0 -25 1 -25 90 0
53 -4 90 -10 90 -6 0 -10 -37 -10 -90 0 -89 0 -90 -25 -90 -24 0 -25 3 -25 55
0 30 -4 55 -10 55 -5 0 -10 -25 -10 -55 0 -52 -1 -55 -25 -55 -24 0 -25 3 -25
55 0 30 -4 55 -10 55 -5 0 -10 -25 -10 -55 0 -52 -1 -55 -25 -55 -24 0 -25 3
-25 55 0 70 -18 72 -22 3 -3 -46 -6 -53 -25 -56 -22 -3 -23 0 -23 53 0 74 -24
71 -28 -3 -3 -43 -6 -52 -22 -52 -17 0 -20 9 -22 85 -4 111 -22 111 -26 0 -2
-76 -5 -85 -22 -85 -16 0 -19 9 -22 52 -4 74 -28 77 -28 4 0 -49 -2 -56 -19
-56 -17 0 -20 8 -23 52 -4 74 -28 77 -28 3 0 -53 -1 -56 -22 -53 -20 3 -23 10
-26 56 -4 69 -22 67 -22 -3 0 -52 -1 -55 -25 -55 -24 0 -25 3 -25 55 0 30 -4
55 -10 55 -5 0 -10 -25 -10 -55 0 -52 -1 -55 -25 -55 -25 0 -25 1 -25 90 0 53
-4 90 -10 90 -6 0 -10 -37 -10 -90 0 -89 0 -90 -25 -90 -24 0 -25 3 -25 55 0
70 -18 72 -22 3 -3 -46 -6 -53 -25 -56 -22 -3 -23 0 -23 52 0 31 -4 56 -9 56
-13 0 -21 -27 -21 -71 0 -32 -3 -39 -20 -39 -18 0 -20 7 -20 56 0 73 -24 70
-28 -4 -3 -43 -6 -52 -22 -52 -16 0 -19 9 -22 50 -4 65 -22 65 -26 0 -3 -41
-6 -50 -22 -50 -17 0 -20 9 -22 87 -2 58 -7 88 -15 91 -10 3 -13 -19 -13 -87
0 -84 -2 -91 -19 -91 -17 0 -20 8 -23 52 -4 74 -28 77 -28 4 0 -53 -1 -56 -25
-56 -24 0 -25 3 -25 55 0 30 -4 55 -10 55 -5 0 -10 -25 -10 -55 0 -52 -1 -55
-25 -55 -24 0 -25 3 -25 55 0 30 -4 55 -10 55 -5 0 -10 -25 -10 -55 0 -52 -1
-55 -25 -55 -24 0 -25 3 -25 55 0 30 -4 55 -10 55 -5 0 -10 -25 -10 -55 0 -52
-1 -55 -25 -55 -25 0 -25 1 -25 90 0 53 -4 90 -10 90 -5 0 -11 -6 -11 -12 -2
-18 -5 -64 -7 -120 -2 -41 -5 -48 -22 -48 -18 0 -20 7 -20 56 0 73 -24 70 -28
-4 -3 -43 -6 -52 -22 -52 -16 0 -19 9 -22 50 -4 65 -22 65 -26 0 -3 -41 -6
-50 -22 -50 -16 0 -19 9 -22 52 -4 74 -28 77 -28 4 0 -49 -2 -56 -19 -56 -17
0 -20 8 -23 52 -4 74 -28 77 -28 4 0 -49 -2 -56 -20 -56 -17 0 -19 8 -22 87
-2 58 -7 88 -15 91 -10 3 -13 -19 -13 -87 0 -90 0 -91 -25 -91 -24 0 -25 3
-25 55 0 30 -4 55 -10 55 -5 0 -10 -25 -10 -55 0 -52 -1 -55 -25 -55 -24 0
-25 3 -25 55 0 30 -4 55 -10 55 -5 0 -10 -25 -10 -55 0 -52 -1 -55 -25 -55
-24 0 -25 3 -25 55 0 30 -4 55 -10 55 -5 0 -10 -25 -10 -55 0 -52 -1 -55 -25
-55 -24 0 -25 3 -25 56 0 73 -24 70 -28 -4 -3 -44 -6 -52 -23 -52 -17 0 -19 7
-19 91 0 68 -3 90 -12 87 -9 -3 -14 -33 -16 -91 -2 -78 -5 -87 -22 -87 -16 0
-19 9 -22 52 -2 29 -7 53 -13 53 -5 0 -11 -24 -13 -53 -3 -43 -6 -52 -22 -52
-16 0 -19 9 -22 52 -4 74 -28 77 -28 4 0 -49 -2 -56 -19 -56 -17 0 -20 8 -23
52 -4 74 -28 77 -28 4 0 -53 -1 -56 -25 -56 -24 0 -25 3 -25 55 0 30 -4 55
-10 55 -5 0 -10 -25 -10 -55 0 -52 -1 -55 -25 -55 -25 0 -25 1 -25 90 0 53 -4
90 -10 90 -6 0 -10 -37 -10 -90 0 -89 0 -90 -25 -90 -24 0 -25 3 -25 55 0 30
-4 55 -10 55 -5 0 -10 -25 -10 -55 0 -52 -1 -55 -25 -55 -24 0 -25 3 -25 55 0
70 -18 72 -22 2 -3 -45 -6 -52 -25 -55 -22 -3 -23 0 -23 53 0 74 -24 71 -28
-3 -3 -43 -6 -52 -22 -52 -16 0 -19 9 -22 53 -4 67 -22 67 -26 -1 -3 -43 -6
-52 -22 -52 -17 0 -20 9 -22 87 -2 58 -7 88 -15 91 -10 3 -13 -19 -13 -87 0
-84 -2 -91 -19 -91 -17 0 -20 8 -23 52 -4 74 -28 77 -28 4 0 -49 -2 -56 -19
-56 -17 0 -20 8 -23 52 -4 74 -28 77 -28 4 0 -53 -1 -56 -25 -56 -24 0 -25 3
-25 55 0 30 -4 55 -10 55 -5 0 -10 -25 -10 -55 0 -52 -1 -55 -25 -55 -24 0
-25 3 -25 55 0 30 -4 55 -10 55 -5 0 -10 -25 -10 -55 0 -52 -1 -55 -25 -55
-25 0 -25 1 -25 90 0 53 -4 90 -10 90 -6 0 -10 -37 -10 -90 0 -89 0 -90 -25
-90 -24 0 -25 3 -25 56 0 73 -24 70 -28 -4 -3 -44 -6 -52 -23 -52 -17 0 -19 7
-19 56 0 73 -24 70 -28 -4 -3 -43 -6 -52 -22 -52 -16 0 -19 9 -22 53 -4 67
-22 67 -26 0 -3 -44 -6 -53 -22 -53 -16 0 -19 9 -22 53 -4 67 -22 67 -26 0 -3
-44 -6 -53 -22 -53 -17 0 -20 9 -22 87 -2 58 -7 88 -15 91 -10 3 -13 -19 -13
-87 0 -90 0 -91 -25 -91 -24 0 -25 3 -25 55 0 30 -4 55 -10 55 -5 0 -10 -25
-10 -55 0 -52 -1 -55 -25 -55 -24 0 -25 3 -25 55 0 30 -4 55 -10 55 -5 0 -10
-25 -10 -55 0 -52 -1 -55 -25 -55 -24 0 -25 3 -25 55 0 30 -4 55 -10 55 -5 0
-10 -25 -10 -55 0 -52 -1 -55 -25 -55 -24 0 -25 3 -25 55 0 70 -18 72 -22 3
-3 -46 -6 -53 -25 -56 -22 -3 -23 -1 -23 88 0 69 -3 91 -12 88 -9 -3 -14 -33
-16 -91 -3 -79 -5 -87 -22 -87 -18 0 -20 7 -20 56 0 73 -24 70 -28 -4 -3 -43
-6 -52 -22 -52 -16 0 -19 9 -22 50 -2 28 -7 50 -13 50 -5 0 -11 -22 -13 -50
-3 -41 -6 -50 -22 -50 -16 0 -19 9 -22 52 -4 74 -28 77 -28 4 0 -49 -2 -56
-19 -56 -17 0 -20 8 -23 52 -4 74 -28 77 -28 4 0 -53 -1 -56 -25 -56 -25 0
-25 1 -25 90 0 53 -4 90 -10 90 -6 0 -10 -37 -10 -90 0 -89 0 -90 -25 -90 -24
0 -25 3 -25 55 0 30 -4 55 -10 55 -5 0 -10 -25 -10 -55 0 -52 -1 -55 -25 -55
-24 0 -25 3 -25 55 0 30 -4 55 -10 55 -5 0 -10 -25 -10 -55 0 -52 -1 -55 -25
-55 -24 0 -25 3 -25 55 0 30 -4 55 -9 55 -13 0 -21 -27 -21 -71 0 -32 -3 -39
-20 -39 -18 0 -20 7 -20 56 0 73 -24 70 -28 -4 -3 -44 -6 -52 -23 -52 -17 0
-19 7 -19 91 0 68 -3 90 -12 87 -9 -3 -14 -33 -16 -91 -2 -78 -5 -87 -22 -87
-16 0 -19 9 -22 53 -2 28 -7 52 -13 52 -5 0 -11 -24 -13 -52 -3 -44 -6 -53
-22 -53 -16 0 -19 9 -22 52 -4 74 -28 77 -28 3 0 -53 -1 -56 -22 -53 -20 3
-23 10 -26 56 -4 69 -22 67 -22 -3 0 -52 -1 -55 -25 -55 -24 0 -25 3 -25 55 0
30 -4 55 -10 55 -5 0 -10 -25 -10 -55 0 -52 -1 -55 -25 -55 -25 0 -25 1 -25
90 0 53 -4 90 -10 90 -6 0 -10 -37 -10 -90 0 -89 0 -90 -25 -90 -24 0 -25 3
-25 55 0 30 -4 55 -10 55 -5 0 -10 -25 -10 -55 0 -52 -1 -55 -25 -55 -24 0
-25 3 -25 56 0 73 -24 70 -28 -4 -3 -44 -6 -52 -23 -52 -17 0 -19 7 -19 56 0
73 -24 70 -28 -4 -3 -43 -6 -52 -22 -52 -16 0 -19 9 -22 53 -4 67 -22 67 -26
0 -3 -44 -6 -53 -22 -53 -17 0 -20 9 -22 87 -2 58 -7 88 -15 91 -10 3 -13 -19
-13 -87 0 -84 -2 -91 -19 -91 -17 0 -20 8 -23 52 -4 74 -28 77 -28 3 0 -53 -1
-56 -22 -53 -20 3 -23 10 -26 56 -4 69 -22 67 -22 -3 0 -52 -1 -55 -25 -55
-24 0 -25 3 -25 55 0 30 -4 55 -10 55 -5 0 -10 -25 -10 -55 0 -52 -1 -55 -25
-55 -24 0 -25 3 -25 55 0 30 -4 55 -10 55 -5 0 -10 -25 -10 -55 0 -52 -1 -55
-25 -55 -25 0 -25 1 -25 90 0 50 -4 90 -9 90 -15 0 -21 -29 -21 -106 0 -67 -2
-74 -20 -74 -18 0 -20 7 -20 56 0 73 -24 70 -28 -4 -3 -44 -6 -52 -23 -52 -17
0 -19 7 -19 56 0 73 -24 70 -28 -4 -3 -43 -6 -52 -22 -52 -16 0 -19 9 -22 52
-4 68 -22 68 -26 1 -3 -44 -6 -53 -22 -53 -16 0 -19 9 -22 52 -4 74 -28 77
-28 4 0 -53 -1 -56 -25 -56 -25 0 -25 1 -25 90 0 53 -4 90 -10 90 -6 0 -10
-37 -10 -90 0 -89 0 -90 -25 -90 -24 0 -25 3 -25 55 0 30 -4 55 -10 55 -5 0
-10 -25 -10 -55 0 -52 -1 -55 -25 -55 -24 0 -25 3 -25 55 0 30 -4 55 -10 55
-5 0 -10 -25 -10 -55 0 -52 -1 -55 -25 -55 -24 0 -25 3 -25 55 0 30 -4 55 -10
55 -5 0 -10 -25 -10 -55 0 -52 -1 -55 -25 -55 -24 0 -25 3 -25 55 0 30 -4 55
-9 55 -13 0 -21 -27 -21 -71 0 -32 -3 -39 -20 -39 -19 0 -20 7 -20 91 0 68 -3
90 -12 87 -9 -3 -14 -33 -16 -91 -2 -78 -5 -87 -22 -87 -16 0 -19 9 -22 50 -4
65 -22 65 -26 0 -3 -41 -6 -50 -22 -50 -16 0 -19 9 -22 52 -4 74 -28 77 -28 4
0 -49 -2 -56 -19 -56 -17 0 -20 8 -23 52 -4 74 -28 77 -28 4 0 -53 -1 -56 -25
-56 -24 0 -25 3 -25 55 0 30 -4 55 -10 55 -5 0 -10 -25 -10 -55 0 -52 -1 -55
-25 -55 -25 0 -25 1 -25 90 0 53 -4 90 -10 90 -6 0 -10 -37 -10 -90 0 -89 0
-90 -25 -90 -24 0 -25 3 -25 55 0 30 -4 55 -10 55 -5 0 -10 -25 -10 -55 0 -52
-1 -55 -25 -55 -24 0 -25 3 -25 55 0 30 -4 55 -9 55 -13 0 -21 -27 -21 -71 0
-32 -3 -39 -20 -39 -18 0 -20 7 -20 55 0 30 -4 55 -9 55 -13 0 -21 -27 -21
-71 0 -32 -3 -39 -20 -39 -18 0 -20 7 -20 56 0 73 -24 70 -28 -4 -3 -43 -6
-52 -22 -52 -17 0 -20 9 -22 85 -4 111 -22 111 -26 0 l-3 -85 -330 0 c-289 0
-330 2 -336 16 -3 9 6 27 23 45 28 29 29 29 128 27 72 -2 100 0 103 10 4 9
-18 12 -88 12 l-93 0 39 41 40 40 100 -2 c66 -1 100 2 103 10 2 7 -17 11 -60
11 -35 0 -73 3 -86 6 -23 7 -23 7 10 41 l33 35 99 -4 c73 -2 100 0 103 10 3 8
-8 12 -35 12 -21 0 -60 3 -86 6 l-47 7 33 34 33 35 97 -4 c117 -4 134 14 23
23 -42 4 -78 9 -80 11 -3 2 11 19 29 37 l34 33 137 -12 c75 -7 139 -9 143 -6
14 15 -27 25 -135 31 -62 4 -113 10 -113 13 0 3 13 20 30 37 l30 31 90 -10
c83 -8 113 -5 97 10 -3 3 -38 10 -77 14 -39 4 -73 10 -75 12 -3 2 10 18 28 35
31 29 34 30 92 23 85 -12 125 -12 125 0 0 9 -18 13 -114 25 l-48 7 31 32 32
33 86 -13 c48 -7 90 -11 95 -8 19 12 -5 22 -64 29 -88 10 -94 15 -59 49 l29
28 86 -12 c78 -12 109 -10 94 6 -4 3 -38 11 -77 17 -39 6 -71 13 -71 17 0 3
12 18 28 33 l27 26 480 -85 c264 -46 523 -91 577 -100 53 -9 101 -20 107 -23
8 -5 5 -48 -8 -146 -11 -77 -18 -141 -16 -143 6 -7 326 -38 329 -33 2 4 9 47
16 96 69 514 189 906 403 1320 352 678 954 1299 1641 1691 446 254 1014 426
1561 473 180 15 151 28 261 -116z m3056 -492 c-23 -27 -42 -54 -42 -60 0 -15
18 -14 27 3 4 7 23 30 41 51 34 37 34 38 53 18 20 -20 20 -20 -25 -70 -26 -28
-46 -54 -46 -57 0 -16 23 -1 63 41 39 41 47 45 61 34 22 -19 21 -22 -24 -74
-58 -66 -49 -80 13 -19 l53 53 19 -21 c18 -20 18 -21 -28 -68 -26 -26 -47 -51
-47 -55 0 -19 26 -3 65 41 l44 47 20 -20 21 -21 -62 -61 -63 -62 -132 121
-132 121 62 73 c61 72 62 73 81 54 19 -19 19 -20 -22 -69z m-5804 6 l61 -74
-43 -36 c-24 -20 -83 -73 -130 -118 l-87 -82 -64 63 c-61 61 -64 65 -48 82 16
18 19 17 65 -29 26 -26 50 -44 54 -40 4 3 -13 29 -36 57 -40 48 -42 52 -26 68
15 15 20 13 66 -33 27 -27 52 -46 56 -42 3 3 -14 30 -39 60 -43 50 -45 54 -30
70 16 16 20 14 65 -30 61 -60 73 -49 18 16 -42 49 -43 52 -25 70 17 20 18 19
65 -32 62 -68 77 -54 17 16 -43 50 -45 55 -29 70 9 10 19 17 23 17 3 0 34 -33
67 -73z m-281 -269 l63 -62 -68 -71 c-37 -38 -91 -96 -120 -128 -29 -31 -56
-57 -59 -57 -2 0 -35 26 -71 57 -37 32 -69 59 -71 60 -3 2 4 12 15 23 19 20
20 20 71 -25 55 -48 63 -52 63 -32 0 6 -22 30 -49 52 -45 37 -48 41 -33 58 22
25 33 22 77 -23 36 -37 65 -51 65 -32 0 4 -23 27 -51 51 l-51 44 21 20 21 21
48 -47 c26 -26 51 -47 55 -47 19 0 3 26 -40 65 -48 43 -48 43 -29 64 l20 22
48 -48 c26 -26 51 -44 55 -40 4 4 -14 29 -40 55 -44 45 -46 49 -30 65 10 9 20
17 22 17 3 0 34 -28 68 -62z m6393 47 c11 -14 6 -23 -35 -65 -63 -64 -51 -76
16 -16 49 45 53 46 71 29 18 -16 17 -18 -27 -63 -63 -64 -56 -81 11 -24 52 45
56 46 72 30 16 -16 14 -20 -30 -62 -43 -41 -58 -64 -42 -64 3 0 29 20 57 45
51 44 52 45 71 25 19 -19 19 -19 -34 -67 -66 -59 -47 -71 22 -13 49 42 50 43
69 23 20 -19 19 -20 -53 -80 l-74 -61 -80 86 c-44 48 -98 106 -119 130 l-38
43 59 60 c32 32 61 59 65 59 4 0 12 -7 19 -15z m-6660 -329 l70 -59 -25 -31
c-126 -155 -299 -398 -401 -564 0 -1 -65 34 -143 79 -136 78 -141 83 -125 100
22 25 25 24 82 -11 27 -16 54 -30 61 -30 24 0 9 17 -45 49 l-56 33 20 21 21
20 60 -36 c63 -40 71 -43 71 -27 0 6 -25 26 -56 46 -56 36 -56 36 -36 56 20
20 20 20 76 -16 31 -20 61 -36 66 -36 24 0 6 22 -45 52 -30 18 -55 35 -55 39
0 3 8 13 18 22 17 15 21 14 70 -18 28 -19 56 -35 62 -35 23 0 7 20 -40 50 -27
18 -50 35 -50 39 0 5 8 15 18 24 17 15 23 13 102 -43 46 -33 87 -60 92 -60 24
0 -1 25 -77 78 -80 56 -84 60 -66 76 24 22 26 21 83 -20 31 -23 53 -33 59 -27
6 6 -11 23 -46 48 l-56 38 20 20 20 20 55 -41 c37 -28 57 -38 62 -30 4 6 -5
20 -22 32 -16 12 -39 30 -52 41 -23 20 -23 21 -5 37 17 16 21 15 70 -23 50
-38 73 -48 73 -31 0 4 -22 25 -50 46 -27 21 -50 41 -50 44 0 3 7 14 16 24 16
17 19 16 64 -22 45 -38 70 -49 70 -32 0 4 -22 25 -50 47 -47 37 -48 40 -33 57
9 10 20 17 24 16 5 -2 40 -30 79 -62z m6941 48 c11 -13 5 -22 -42 -64 -65 -59
-45 -66 26 -10 47 37 50 38 68 22 18 -16 17 -18 -35 -63 -69 -61 -56 -75 17
-19 56 43 56 43 76 23 20 -20 20 -20 -20 -47 -21 -15 -47 -36 -57 -47 -32 -35
10 -22 64 20 l49 39 21 -20 21 -21 -55 -39 c-48 -35 -67 -58 -47 -58 4 0 33
18 64 40 54 38 57 39 73 21 9 -9 16 -20 16 -23 0 -3 -36 -29 -80 -59 -43 -30
-79 -60 -80 -66 0 -7 2 -13 5 -13 3 0 44 27 92 60 81 57 87 59 105 43 10 -9
18 -19 18 -22 0 -3 -25 -22 -55 -41 -52 -33 -67 -50 -45 -50 6 0 35 17 66 37
l55 36 21 -20 21 -21 -57 -37 c-31 -19 -56 -40 -56 -45 0 -15 8 -12 71 27 l60
36 20 -20 20 -20 -55 -34 c-31 -18 -56 -39 -56 -47 0 -10 10 -8 38 9 97 58 88
55 112 34 l21 -19 -50 -28 c-98 -57 -90 -80 9 -25 59 32 59 32 79 12 20 -20
20 -20 -114 -97 -74 -43 -138 -78 -142 -77 -4 0 -59 78 -121 172 -62 95 -158
228 -213 296 l-99 124 37 31 c21 17 51 43 68 58 35 32 48 34 66 12z m-7452
-645 l140 -81 -50 -91 c-71 -131 -159 -316 -215 -453 -26 -66 -48 -120 -49
-121 -1 -2 -534 191 -574 208 -23 9 -23 10 -6 29 23 26 39 25 111 -4 56 -23
74 -25 74 -7 0 4 -29 18 -65 30 -36 13 -65 26 -65 29 0 11 33 42 45 42 6 0 40
-12 75 -26 38 -15 66 -22 72 -16 6 6 -13 18 -49 32 -76 30 -82 36 -57 60 l20
21 73 -31 c40 -17 76 -28 79 -25 10 10 -24 31 -79 51 -27 10 -49 21 -49 24 0
4 9 15 20 25 19 17 22 17 82 -9 66 -27 88 -32 88 -18 0 5 -30 22 -66 37 l-67
28 23 19 c12 10 28 18 35 18 7 0 51 -18 99 -40 89 -41 110 -47 104 -30 -2 8
-125 71 -183 94 -5 2 -1 13 11 25 l20 22 67 -31 c74 -33 77 -34 77 -20 0 6
-25 22 -55 37 -30 15 -55 30 -55 33 0 3 7 14 15 25 15 19 17 19 82 -14 46 -23
69 -29 76 -22 6 6 7 11 2 11 -6 0 -33 14 -62 30 -35 20 -51 35 -47 44 10 27
35 26 94 -4 66 -33 70 -34 70 -20 0 5 -24 24 -54 41 -36 20 -53 35 -50 44 11
27 42 26 93 -5 55 -32 71 -36 71 -20 0 5 -25 24 -55 41 -30 17 -55 32 -55 34
0 7 32 35 40 35 4 0 71 -36 149 -81z m8033 64 c17 -15 16 -18 -39 -48 -53 -29
-78 -55 -54 -55 5 0 36 15 68 34 l58 34 23 -21 22 -21 -60 -33 c-33 -19 -60
-38 -60 -44 0 -13 3 -12 74 23 64 31 65 32 86 13 l21 -19 -61 -34 c-33 -19
-60 -38 -60 -43 0 -13 3 -12 75 23 l65 32 21 -21 22 -21 -62 -31 c-33 -17 -61
-36 -61 -41 0 -16 17 -12 81 21 58 29 62 29 80 13 10 -9 19 -20 19 -24 0 -4
-43 -26 -95 -50 -88 -40 -115 -60 -81 -60 7 0 55 20 107 44 l94 44 23 -21 23
-22 -59 -26 c-64 -29 -94 -56 -51 -47 13 3 47 16 75 28 l52 23 26 -20 26 -21
-65 -27 c-36 -16 -65 -32 -65 -37 0 -14 25 -9 85 18 l58 25 24 -24 25 -24 -61
-23 c-59 -22 -79 -35 -68 -46 3 -3 33 6 68 20 75 31 83 32 109 6 22 -22 23
-22 -53 -50 -31 -12 -57 -26 -57 -31 0 -15 23 -11 90 17 l62 25 24 -22 c18
-17 21 -25 12 -30 -25 -13 -579 -211 -582 -208 -1 2 -18 42 -36 89 -59 150
-136 315 -204 439 -36 66 -66 124 -66 129 0 9 258 161 274 162 5 0 18 -7 28
-17z m-8511 -728 l297 -108 -34 -101 c-41 -121 -117 -421 -134 -529 -7 -42
-16 -77 -21 -77 -15 0 -1142 200 -1145 203 -2 2 9 16 25 31 l28 27 83 -17 c55
-11 85 -13 92 -6 12 12 1 16 -90 33 l-64 12 30 30 30 29 81 -17 c45 -10 85
-15 88 -11 12 12 -16 24 -85 37 l-64 12 29 29 29 29 82 -19 c49 -12 85 -16 88
-10 8 13 8 13 -74 33 l-74 18 29 28 28 29 73 -20 c82 -23 92 -24 92 -10 0 12
0 12 -84 35 l-58 16 23 25 c28 30 31 30 158 -6 96 -27 136 -30 114 -10 -4 5
-53 20 -108 35 -55 15 -102 29 -104 31 -9 9 34 44 53 44 12 0 49 -9 83 -19 58
-18 73 -18 73 0 0 4 -29 15 -65 24 -36 10 -68 21 -70 25 -2 4 6 17 20 30 l24
22 62 -21 c68 -23 99 -26 99 -11 0 5 -32 19 -71 30 l-72 22 26 25 25 25 76
-25 c47 -16 78 -22 82 -16 8 14 9 13 -70 39 l-68 22 25 25 25 25 76 -25 c42
-14 78 -21 81 -17 6 9 -28 26 -98 49 l-39 13 23 24 c13 14 28 23 34 21 5 -3
143 -53 306 -112z m9158 91 l23 -24 -71 -23 c-40 -13 -71 -29 -71 -36 0 -17
-3 -17 79 12 73 27 92 25 120 -9 10 -12 2 -18 -58 -37 -39 -13 -71 -27 -71
-31 0 -12 19 -10 89 12 l65 21 24 -24 24 -25 -66 -22 c-36 -12 -66 -26 -66
-31 0 -13 15 -11 93 12 l70 21 25 -25 25 -25 -71 -22 c-40 -12 -72 -26 -72
-31 0 -14 29 -11 95 10 59 18 59 18 87 -2 15 -11 28 -24 28 -27 0 -4 -47 -19
-105 -35 -97 -26 -125 -38 -112 -51 3 -3 55 8 116 25 61 17 117 31 124 31 7 0
24 -11 36 -24 l23 -25 -38 -10 c-22 -5 -54 -14 -73 -18 -34 -9 -56 -33 -29
-33 7 0 46 9 85 19 72 19 73 19 98 -1 14 -11 25 -23 25 -28 0 -4 -32 -16 -70
-25 -43 -11 -69 -22 -67 -29 5 -13 2 -13 95 9 l73 17 25 -23 c13 -12 24 -26
24 -30 0 -4 -29 -13 -65 -20 -70 -14 -94 -24 -82 -35 4 -4 45 1 92 11 l86 18
24 -23 c14 -13 25 -27 25 -31 0 -4 -29 -13 -65 -20 -69 -14 -94 -24 -82 -35 3
-4 46 1 93 10 l87 18 29 -30 30 -29 -64 -12 c-304 -55 -1083 -190 -1085 -187
-1 1 -12 49 -23 107 -31 155 -76 328 -122 472 -22 70 -39 129 -37 131 7 6 583
215 595 215 6 1 21 -10 33 -23z"/>
<path d="M5761 3917 c-40 -20 -47 -41 -26 -73 11 -16 18 -39 16 -52 -6 -48 49
-70 82 -34 17 19 22 53 10 66 -4 4 -6 24 -4 46 2 30 -2 41 -18 49 -25 14 -30
14 -60 -2z m44 -47 c0 -16 -6 -26 -18 -28 -19 -4 -32 20 -23 44 9 25 41 13 41
-16z m15 -80 c0 -13 -7 -20 -20 -20 -13 0 -20 7 -20 20 0 13 7 20 20 20 13 0
20 -7 20 -20z"/>
<path d="M6900 3898 c-24 -40 -26 -110 -4 -132 21 -22 67 -20 88 3 37 41 38
131 3 153 -29 19 -67 8 -87 -24z m79 -20 c10 -29 -1 -79 -20 -91 -26 -16 -49
-1 -49 32 0 67 50 110 69 59z"/>
<path d="M7067 3903 c-44 -11 -65 -134 -29 -166 28 -25 57 -20 86 14 29 34 36
103 14 131 -15 18 -45 27 -71 21z m51 -74 c3 -50 -16 -83 -47 -77 -23 4 -27
72 -6 104 26 40 49 27 53 -27z"/>
<path d="M5605 3880 c-23 -25 -23 -101 -1 -135 58 -88 151 18 101 114 -23 45
-69 55 -100 21z m75 -39 c15 -38 10 -81 -13 -95 -15 -9 -21 -7 -33 8 -14 20
-20 97 -7 109 15 16 41 5 53 -22z"/>
<path d="M7184 3878 c-4 -6 -2 -13 4 -17 7 -4 6 -29 -5 -79 -9 -40 -14 -75
-11 -77 9 -10 58 18 58 32 0 7 -5 13 -11 13 -19 0 1 83 24 102 18 13 19 18 7
21 -39 13 -61 14 -66 5z"/>
<path d="M5116 3701 c-3 -38 -10 -81 -16 -95 -13 -35 1 -41 60 -21 72 24 86
56 17 37 l-36 -10 2 75 c3 100 -18 110 -27 14z"/>
<path d="M7602 3763 c-19 -7 -52 -78 -52 -111 0 -59 67 -82 109 -38 32 34 40
109 16 136 -17 19 -46 24 -73 13z m56 -61 c4 -44 -22 -84 -51 -80 -18 2 -22 9
-21 41 2 71 66 105 72 39z"/>
<path d="M7720 3722 c0 -4 4 -12 9 -17 6 -6 0 -33 -15 -69 -13 -33 -24 -65
-24 -73 0 -17 21 -17 46 2 14 11 16 17 6 23 -16 11 22 102 43 102 26 0 16 18
-16 29 -38 13 -49 14 -49 3z"/>
<path d="M4946 3688 c-21 -29 -20 -54 4 -105 28 -63 81 -71 115 -19 20 30 8
89 -25 124 -27 29 -74 29 -94 0z m87 -50 c22 -45 10 -81 -26 -76 -25 3 -55 73
-44 102 12 30 50 15 70 -26z"/>
<path d="M7829 3692 c-1 -4 -2 -20 -4 -37 -1 -16 -12 -54 -23 -82 -21 -51 -21
-53 -3 -53 29 0 51 11 51 25 0 7 -5 15 -10 17 -17 5 23 86 45 92 12 3 16 9 10
14 -17 14 -65 32 -66 24z"/>
<path d="M6384 3677 c-10 -28 1 -220 14 -225 9 -3 12 25 12 117 0 77 -4 121
-10 121 -6 0 -13 -6 -16 -13z"/>
<path d="M6075 3568 c7 -118 9 -128 27 -128 10 0 8 36 -8 188 -4 28 -11 52
-16 52 -7 0 -8 -38 -3 -112z"/>
<path d="M6706 3663 c-11 -40 -18 -223 -8 -223 10 0 17 39 28 163 4 51 3 77
-4 77 -6 0 -13 -8 -16 -17z"/>
<path d="M5750 3618 c1 -30 37 -208 43 -214 18 -18 18 13 0 112 -10 61 -24
109 -31 112 -6 2 -12 -2 -12 -10z"/>
<path d="M7005 3528 c-10 -57 -20 -109 -22 -115 -3 -7 2 -13 10 -13 11 0 19
25 32 98 9 53 19 105 21 115 3 10 0 17 -9 17 -10 0 -19 -29 -32 -102z"/>
<path d="M6202 3541 c2 -61 7 -86 17 -89 11 -4 12 9 6 74 -10 110 -27 121 -23
15z"/>
<path d="M6262 3538 c2 -54 7 -83 16 -86 13 -4 17 80 6 137 -12 60 -25 30 -22
-51z"/>
<path d="M6322 3538 c4 -105 23 -107 23 -1 0 53 -4 78 -13 81 -10 3 -12 -15
-10 -80z"/>
<path d="M6450 3536 c0 -98 19 -120 22 -26 1 33 2 70 2 82 1 12 -5 23 -11 26
-10 3 -13 -18 -13 -82z"/>
<path d="M6517 3614 c-10 -11 -9 -164 2 -164 11 0 24 151 13 162 -4 4 -11 5
-15 2z"/>
<path d="M6577 3614 c-11 -11 -8 -164 2 -164 13 0 26 149 14 161 -5 5 -12 6
-16 3z"/>
<path d="M6139 3603 c-1 -5 0 -39 1 -78 2 -69 11 -98 25 -76 9 16 -5 161 -16
161 -5 0 -9 -3 -10 -7z"/>
<path d="M6636 3588 c-11 -41 -7 -153 5 -141 14 14 25 163 12 163 -6 0 -13
-10 -17 -22z"/>
<path d="M6014 3539 c3 -34 6 -70 6 -80 0 -11 7 -19 15 -19 12 0 14 10 9 48
-10 90 -15 112 -26 112 -7 0 -9 -20 -4 -61z"/>
<path d="M6767 3593 c-3 -5 -8 -41 -12 -80 -5 -52 -4 -73 4 -73 15 0 18 11 25
93 4 41 3 67 -3 67 -5 0 -12 -3 -14 -7z"/>
<path d="M5955 3518 c3 -40 9 -76 12 -80 10 -17 24 5 19 30 -2 15 -8 48 -11
75 -3 26 -11 47 -17 47 -7 0 -8 -23 -3 -72z"/>
<path d="M6816 3529 c-8 -83 -8 -99 4 -99 9 0 13 19 25 113 5 37 3 47 -8 47
-10 0 -16 -18 -21 -61z"/>
<path d="M5826 3572 c-7 -11 15 -144 25 -156 18 -20 20 5 8 78 -11 73 -21 96
-33 78z"/>
<path d="M5886 3553 c3 -16 8 -50 12 -77 4 -28 13 -51 21 -54 11 -4 12 5 7 44
-14 97 -18 114 -32 114 -9 0 -12 -8 -8 -27z"/>
<path d="M6887 3573 c-11 -18 -19 -153 -9 -153 12 0 18 24 27 103 5 38 4 57
-3 57 -6 0 -13 -3 -15 -7z"/>
<path d="M6946 3547 c-13 -53 -18 -137 -8 -137 12 0 18 23 27 103 5 36 4 57
-3 57 -5 0 -12 -10 -16 -23z"/>
<path d="M5440 3548 c0 -22 51 -202 60 -211 16 -17 19 11 5 59 -7 27 -21 75
-30 107 -8 31 -20 57 -25 57 -6 0 -10 -6 -10 -12z"/>
<path d="M7331 3538 c-20 -54 -54 -199 -48 -205 4 -3 10 -3 13 0 6 6 63 202
64 220 0 17 -21 5 -29 -15z"/>
<path d="M5700 3537 c0 -28 23 -132 31 -141 17 -19 20 4 9 61 -6 32 -14 66
-16 76 -6 20 -24 23 -24 4z"/>
<path d="M7075 3538 c-9 -26 -25 -104 -25 -125 0 -44 19 -22 30 35 6 31 14 67
17 80 5 23 -14 32 -22 10z"/>
<path d="M5640 3523 c0 -16 8 -53 26 -132 3 -17 8 -21 16 -13 12 12 -18 162
-33 162 -5 0 -9 -8 -9 -17z"/>
<path d="M7136 3529 c-27 -77 -36 -190 -12 -151 14 22 34 147 26 156 -6 6 -11
4 -14 -5z"/>
<path d="M5580 3503 c0 -10 4 -34 9 -53 5 -19 12 -47 15 -62 4 -16 11 -28 17
-28 12 0 7 52 -12 123 -10 38 -29 51 -29 20z"/>
<path d="M7196 3512 c-13 -22 -34 -138 -26 -146 6 -6 11 -4 14 5 7 19 36 135
36 143 0 9 -18 7 -24 -2z"/>
<path d="M5520 3495 c0 -31 33 -145 41 -145 13 0 11 22 -7 95 -15 60 -34 87
-34 50z"/>
<path d="M7255 3498 c-2 -7 -11 -42 -20 -77 -15 -60 -14 -85 3 -65 9 9 42 125
42 144 0 14 -20 12 -25 -2z"/>
<path d="M8208 3500 c-26 -16 -58 -74 -58 -107 0 -80 94 -82 135 -3 39 75 -12
147 -77 110z m58 -35 c14 -36 -27 -105 -61 -105 -34 0 -31 64 5 100 24 24 48
26 56 5z"/>
<path d="M4460 3470 c-22 -22 -25 -42 -10 -70 18 -34 48 -44 76 -25 l24 16 -6
-42 c-6 -33 -4 -41 6 -37 19 6 32 56 25 94 -7 39 -47 84 -75 84 -11 0 -29 -9
-40 -20z m69 -28 c12 -22 -3 -42 -31 -42 -21 0 -33 22 -24 45 8 21 43 19 55
-3z"/>
<path d="M5397 3473 c-9 -15 36 -153 50 -153 16 0 17 -5 -8 76 -22 71 -33 92
-42 77z"/>
<path d="M7361 3411 c-24 -80 -26 -94 -9 -89 12 4 48 108 48 141 0 39 -19 13
-39 -52z"/>
<path d="M7646 3462 c-3 -5 -21 -53 -41 -107 -23 -65 -32 -102 -26 -108 7 -7
12 -6 15 4 59 161 74 209 66 214 -5 3 -11 1 -14 -3z"/>
<path d="M5136 3452 c-6 -10 58 -190 73 -205 22 -22 15 16 -18 105 -38 102
-45 115 -55 100z"/>
<path d="M5340 3445 c0 -24 31 -128 41 -139 20 -22 20 7 0 73 -20 67 -41 100
-41 66z"/>
<path d="M7421 3398 c-23 -67 -26 -98 -12 -98 8 0 51 125 51 149 0 31 -21 4
-39 -51z"/>
<path d="M8335 3441 c-3 -6 10 -21 30 -32 41 -24 33 -39 -21 -39 -18 0 -42 -8
-54 -18 -45 -36 1 -100 59 -85 26 7 22 28 -5 29 -39 2 -44 4 -44 18 0 16 21
26 59 26 33 0 71 26 71 49 0 15 -14 25 -82 59 -3 2 -9 -2 -13 -7z"/>
<path d="M5272 3428 c3 -7 15 -43 27 -80 20 -60 41 -89 41 -56 0 32 -45 148
-58 148 -8 0 -12 -6 -10 -12z"/>
<path d="M7477 3365 c-15 -43 -22 -77 -16 -80 5 -4 11 0 14 7 18 50 45 133 45
140 0 4 -4 8 -9 8 -5 0 -21 -34 -34 -75z"/>
<path d="M4344 3397 c-23 -21 -26 -28 -20 -61 10 -50 54 -98 91 -98 76 0 71
125 -7 168 -31 18 -33 17 -64 -9z m81 -47 c31 -59 6 -112 -36 -75 -23 22 -43
71 -35 90 10 27 54 18 71 -15z"/>
<path d="M5220 3407 c0 -15 35 -121 45 -137 4 -6 10 -8 15 -5 10 6 -38 155
-51 155 -5 0 -9 -6 -9 -13z"/>
<path d="M7555 3408 c-19 -51 -45 -133 -45 -140 0 -4 4 -8 9 -8 9 0 44 82 57
135 6 26 -12 37 -21 13z"/>
<path d="M5090 3376 c0 -12 51 -141 59 -149 5 -5 11 -5 14 0 7 12 -46 146 -61
151 -6 2 -12 1 -12 -2z"/>
<path d="M7656 3309 c-28 -76 -31 -89 -17 -89 9 0 61 125 61 148 0 32 -20 5
-44 -59z"/>
<path d="M8455 3360 c4 -13 -5 -39 -29 -78 -20 -31 -36 -61 -36 -65 0 -4 13
-7 29 -7 33 0 51 18 31 30 -15 9 35 90 56 90 23 0 15 26 -11 38 -37 17 -47 15
-40 -8z"/>
<path d="M5037 3354 c-7 -8 53 -154 64 -154 14 0 11 15 -17 85 -26 64 -36 80
-47 69z"/>
<path d="M7712 3285 c-18 -45 -27 -77 -21 -81 6 -3 12 -4 14 -3 7 9 55 134 55
146 0 33 -20 7 -48 -62z"/>
<path d="M4836 3341 c-8 -13 87 -211 102 -211 6 0 12 2 12 4 0 8 -100 216
-104 216 -3 0 -7 -4 -10 -9z"/>
<path d="M7897 3248 c-50 -109 -53 -118 -37 -118 11 0 100 184 100 206 0 35
-20 6 -63 -88z"/>
<path d="M4980 3320 c0 -26 55 -140 68 -140 7 0 12 4 10 8 -36 88 -63 142 -70
142 -4 0 -8 -4 -8 -10z"/>
<path d="M7770 3264 c-33 -72 -35 -84 -20 -84 6 0 21 24 34 54 33 75 39 96 27
96 -6 0 -24 -30 -41 -66z"/>
<path d="M4927 3303 c-8 -13 51 -153 64 -153 16 0 10 24 -24 95 -19 40 -36 64
-40 58z"/>
<path d="M7851 3293 c-30 -58 -58 -133 -51 -138 9 -6 34 36 63 107 16 38 6 64
-12 31z"/>
<path d="M4808 3254 c-8 -8 57 -147 71 -152 18 -6 13 15 -24 88 -36 72 -38 74
-47 64z"/>
<path d="M7940 3190 c-30 -60 -39 -97 -20 -85 12 7 70 119 70 135 0 27 -23 4
-50 -50z"/>
<path d="M4750 3220 c0 -22 65 -140 77 -140 19 0 17 5 -24 81 -34 63 -53 84
-53 59z"/>
<path d="M7995 3161 c-38 -77 -40 -81 -25 -81 14 0 81 138 70 145 -5 3 -25
-26 -45 -64z"/>
<path d="M4540 3191 c0 -16 111 -201 121 -201 16 0 10 17 -47 114 -50 86 -74
114 -74 87z"/>
<path d="M4697 3193 c-8 -8 62 -143 74 -143 15 0 10 18 -21 80 -30 60 -42 74
-53 63z"/>
<path d="M8046 3129 c-36 -66 -41 -90 -16 -74 12 7 70 119 70 135 0 25 -19 4
-54 -61z"/>
<path d="M8183 3108 c-50 -86 -62 -118 -45 -118 7 0 110 178 112 195 4 32 -22
3 -67 -77z"/>
<path d="M4640 3159 c0 -17 71 -139 81 -139 16 0 10 20 -28 85 -35 61 -53 79
-53 54z"/>
<path d="M8114 3123 c-15 -27 -33 -58 -40 -70 -9 -15 -10 -24 -3 -28 13 -8 8
-14 53 67 21 38 33 69 27 72 -5 4 -22 -15 -37 -41z"/>
<path d="M8773 3120 c-44 -26 -65 -62 -61 -102 6 -64 91 -64 135 1 30 44 30
85 1 105 -29 20 -36 20 -75 -4z m67 -42 c0 -36 -38 -78 -71 -78 -24 0 -29 4
-29 23 0 44 53 93 88 80 6 -3 12 -14 12 -25z"/>
<path d="M3897 3092 c-24 -27 -22 -74 6 -100 28 -26 54 -28 79 -5 30 27 34 5
5 -25 -30 -31 -34 -42 -14 -42 14 1 77 56 77 67 0 5 -13 23 -29 42 -29 35 -51
35 -51 0 0 -25 -25 -35 -46 -18 -23 19 -14 62 14 69 30 7 29 24 -1 28 -13 2
-30 -5 -40 -16z"/>
<path d="M4525 3101 c-5 -8 44 -104 71 -140 1 -1 7 0 13 3 6 4 -6 33 -31 74
-49 81 -45 76 -53 63z"/>
<path d="M8237 3073 c-50 -80 -61 -103 -53 -110 9 -9 30 18 69 86 33 59 19 80
-16 24z"/>
<path d="M4470 3060 c0 -7 60 -109 76 -129 1 -1 7 0 13 3 6 4 -7 33 -31 71
-37 60 -58 80 -58 55z"/>
<path d="M8266 3004 c-35 -59 -42 -85 -18 -70 9 5 82 123 82 132 0 2 -6 4 -12
4 -7 0 -30 -30 -52 -66z"/>
<path d="M4410 3036 c0 -3 19 -34 41 -70 38 -61 59 -81 59 -56 0 18 -75 129
-87 130 -7 0 -13 -2 -13 -4z"/>
<path d="M8321 2975 c-44 -69 -46 -75 -31 -75 11 0 90 114 90 129 0 26 -21 6
-59 -54z"/>
<path d="M8882 3028 c-7 -7 -12 -18 -12 -26 0 -8 -11 -23 -26 -34 -31 -25 -28
-54 9 -81 22 -17 29 -19 40 -8 8 10 9 15 1 18 -26 9 -47 31 -40 42 5 8 13 8
27 1 26 -15 42 -4 29 20 -17 32 -12 50 14 50 18 0 26 -6 28 -22 2 -12 9 -23
16 -26 18 -6 15 43 -4 62 -18 19 -65 21 -82 4z"/>
<path d="M4270 3021 c0 -8 97 -154 127 -190 2 -3 7 0 12 5 5 5 -17 45 -55 99
-61 86 -84 109 -84 86z"/>
<path d="M8472 2978 c-66 -90 -95 -138 -88 -145 9 -9 22 7 90 104 62 90 61
126 -2 41z"/>
<path d="M3802 3008 c-47 -23 -37 -96 20 -143 34 -29 55 -31 86 -9 28 19 29
58 2 101 -15 26 -68 66 -82 62 -2 0 -13 -5 -26 -11z m69 -48 c22 -21 29 -37
27 -57 -4 -40 -33 -41 -68 -3 -32 34 -37 59 -18 78 18 18 26 15 59 -18z"/>
<path d="M4360 2994 c0 -15 93 -133 101 -128 6 3 4 15 -5 27 -9 12 -28 41 -43
64 -24 37 -53 57 -53 37z"/>
<path d="M8371 2941 c-40 -58 -50 -81 -32 -81 9 0 91 120 91 133 0 20 -22 1
-59 -52z"/>
<path d="M4787 2964 c-4 -4 -7 -17 -7 -29 0 -11 -5 -26 -12 -33 -9 -9 -9 -15
0 -24 7 -7 12 -36 12 -64 0 -87 24 -84 88 10 23 34 42 65 42 68 0 3 -20 9 -44
12 -39 6 -45 11 -48 33 -3 27 -18 39 -31 27z m57 -119 c-9 -14 -18 -25 -20
-25 -2 0 -4 11 -4 25 0 18 5 25 20 25 20 0 20 -1 4 -25z"/>
<path d="M7920 2944 c0 -15 -8 -33 -17 -40 -17 -13 -17 -15 0 -28 12 -9 17
-27 17 -64 0 -51 7 -66 26 -54 16 11 94 120 94 131 0 5 -20 13 -44 16 -39 6
-45 11 -48 33 -4 36 -28 41 -28 6z m53 -101 c-9 -16 -18 -30 -20 -32 -2 -2 -3
10 -3 27 0 25 4 32 20 32 20 0 20 -1 3 -27z"/>
<path d="M9009 2963 c-1 -5 -1 -15 0 -23 1 -9 -19 -35 -44 -60 -53 -52 -57
-70 -16 -70 31 0 51 18 33 29 -16 9 54 82 73 75 22 -9 18 10 -8 34 -24 23 -36
27 -38 15z"/>
<path d="M4263 2916 c10 -25 79 -116 88 -116 16 0 9 16 -32 73 -37 52 -69 77
-56 43z"/>
<path d="M8475 2872 c-49 -69 -50 -72 -33 -72 12 1 98 109 98 124 0 21 -31 -3
-65 -52z"/>
<path d="M4210 2889 c0 -18 84 -128 98 -129 19 0 15 8 -35 76 -45 62 -63 77
-63 53z"/>
<path d="M8531 2845 c-45 -60 -58 -85 -44 -85 17 0 105 122 95 132 -5 5 -25
-12 -51 -47z"/>
<path d="M4547 2864 c-18 -18 -1 -24 74 -24 60 0 80 3 77 13 -5 13 -139 23
-151 11z"/>
<path d="M4967 2863 c-4 -3 -7 -10 -7 -15 0 -4 311 -8 690 -8 398 0 690 4 690
9 0 5 -7 12 -16 15 -21 8 -1349 8 -1357 -1z"/>
<path d="M6467 2863 c-4 -3 -7 -10 -7 -15 0 -4 309 -8 686 -8 544 0 685 3 682
13 -4 9 -150 13 -680 15 -371 1 -678 -1 -681 -5z"/>
<path d="M8102 2864 c-30 -13 6 -24 79 -24 60 0 80 3 77 13 -5 12 -130 21
-156 11z"/>
<path d="M4160 2849 c0 -18 92 -129 101 -123 11 7 7 14 -45 82 -40 51 -56 63
-56 41z"/>
<path d="M6385 2848 c-3 -7 -4 -521 -3 -1142 2 -893 6 -1130 16 -1134 9 -3 12
230 12 1142 0 1080 -3 1193 -25 1134z"/>
<path d="M8576 2803 c-59 -75 -59 -104 0 -38 54 59 68 82 55 89 -5 4 -30 -20
-55 -51z"/>
<path d="M4020 2829 c0 -16 138 -179 151 -179 17 0 8 15 -66 104 -68 83 -85
97 -85 75z"/>
<path d="M8691 2754 c-67 -82 -81 -104 -63 -104 7 0 130 141 145 167 4 6 3 14
-2 17 -5 3 -41 -33 -80 -80z"/>
<path d="M4110 2809 c0 -15 88 -119 101 -119 17 0 9 15 -36 70 -46 57 -65 71
-65 49z"/>
<path d="M8620 2760 c-27 -34 -48 -66 -44 -71 8 -13 14 -8 67 60 63 79 42 89
-23 11z"/>
<path d="M4540 2780 c0 -6 33 -10 80 -10 47 0 80 4 80 10 0 6 -33 10 -80 10
-47 0 -80 -4 -80 -10z"/>
<path d="M8095 2780 c3 -5 42 -10 86 -10 46 0 79 4 79 10 0 6 -35 10 -86 10
-54 0 -83 -4 -79 -10z"/>
<path d="M4016 2732 c-6 -10 100 -129 109 -120 8 8 -6 30 -57 87 -40 43 -44
46 -52 33z"/>
<path d="M8717 2686 c-43 -50 -60 -83 -39 -74 14 5 102 108 102 118 0 21 -18
8 -63 -44z"/>
<path d="M4540 2710 c0 -6 33 -10 80 -10 47 0 80 4 80 10 0 6 -33 10 -80 10
-47 0 -80 -4 -80 -10z"/>
<path d="M8095 2710 c3 -5 42 -10 86 -10 46 0 79 4 79 10 0 6 -35 10 -86 10
-54 0 -83 -4 -79 -10z"/>
<path d="M3970 2690 c0 -6 21 -34 47 -63 26 -29 49 -54 50 -56 1 -1 6 0 12 4
7 4 -10 30 -41 66 -51 58 -68 70 -68 49z"/>
<path d="M8761 2643 c-50 -56 -60 -73 -42 -73 10 0 111 111 111 123 0 19 -23
2 -69 -50z"/>
<path d="M9280 2662 c-64 -29 -97 -81 -77 -118 27 -49 76 -47 128 5 43 43 49
71 19 101 -20 20 -43 24 -70 12z m58 -45 c5 -24 -45 -77 -73 -77 -51 0 -49 50
3 83 33 21 66 18 70 -6z"/>
<path d="M3920 2651 c0 -13 100 -121 111 -121 20 0 6 24 -42 76 -50 52 -69 64
-69 45z"/>
<path d="M8806 2601 c-49 -49 -60 -71 -37 -71 13 0 111 119 103 124 -5 3 -34
-21 -66 -53z"/>
<path d="M4540 2640 c0 -6 33 -10 80 -10 47 0 80 4 80 10 0 6 -33 10 -80 10
-47 0 -80 -4 -80 -10z"/>
<path d="M8090 2640 c0 -6 35 -10 85 -10 50 0 85 4 85 10 0 6 -35 10 -85 10
-50 0 -85 -4 -85 -10z"/>
<path d="M3459 2594 c-23 -23 -29 -24 -47 -13 -26 16 -40 5 -21 -17 8 -9 14
-24 14 -33 0 -10 7 -15 18 -13 10 2 34 -11 54 -27 37 -30 53 -32 53 -5 0 23
-33 134 -39 134 -4 0 -18 -12 -32 -26z m31 -64 c0 -12 -3 -12 -16 2 -9 9 -13
21 -9 28 9 14 25 -5 25 -30z"/>
<path d="M3780 2613 c0 -16 158 -165 170 -161 6 2 -25 39 -70 83 -80 79 -100
95 -100 78z"/>
<path d="M8917 2542 c-78 -78 -87 -92 -64 -92 17 0 169 154 161 163 -13 12
-18 8 -97 -71z"/>
<path d="M3880 2604 c0 -13 95 -114 107 -114 23 0 14 14 -40 68 -49 48 -67 61
-67 46z"/>
<path d="M8845 2555 c-26 -31 -44 -59 -41 -62 7 -7 116 96 116 109 0 23 -33 2
-75 -47z"/>
<path d="M4540 2570 c0 -6 33 -10 80 -10 47 0 80 4 80 10 0 6 -33 10 -80 10
-47 0 -80 -4 -80 -10z"/>
<path d="M8095 2570 c-4 -6 25 -10 79 -10 51 0 86 4 86 10 0 6 -33 10 -79 10
-44 0 -83 -4 -86 -10z"/>
<path d="M9401 2556 c-7 -9 -23 -14 -34 -13 -14 1 -22 -4 -22 -13 0 -9 -16
-30 -35 -47 -49 -44 -34 -57 59 -47 39 3 71 10 71 14 0 4 -9 19 -21 34 -20 26
-21 28 -3 47 12 13 14 23 7 30 -7 7 -14 5 -22 -5z m-16 -76 c3 -5 3 -10 -2
-10 -4 0 -19 -3 -33 -6 -24 -6 -25 -6 -5 9 24 19 32 21 40 7z"/>
<path d="M3315 2506 c-35 -35 -32 -52 19 -102 48 -48 82 -56 109 -26 29 32 21
76 -18 111 -20 17 -40 31 -45 31 -4 0 -15 3 -24 6 -9 3 -26 -5 -41 -20z m93
-39 c27 -25 27 -70 -1 -75 -10 -2 -33 12 -53 32 -30 30 -34 38 -24 56 13 25
42 20 78 -13z"/>
<path d="M3786 2523 c-7 -7 103 -123 116 -123 4 0 8 6 8 14 0 16 -115 118
-124 109z"/>
<path d="M8936 2471 c-32 -32 -54 -61 -49 -64 5 -3 36 18 69 48 41 37 56 56
49 64 -8 8 -28 -6 -69 -48z"/>
<path d="M4465 2500 c-4 -6 33 -10 104 -10 61 0 114 0 118 -1 4 0 9 4 11 10 5
14 -224 15 -233 1z"/>
<path d="M4960 2500 c0 -7 233 -10 680 -10 374 0 683 0 687 -1 4 0 9 4 11 10
3 8 -199 11 -687 11 -454 0 -691 -3 -691 -10z"/>
<path d="M6462 2500 c2 -7 232 -10 683 -10 451 0 681 3 683 10 3 7 -223 10
-683 10 -460 0 -686 -3 -683 -10z"/>
<path d="M8095 2500 c-4 -6 33 -10 104 -10 61 0 114 0 118 -1 4 0 9 4 11 10 5
14 -224 15 -233 1z"/>
<path d="M3740 2471 c0 -11 110 -111 122 -111 18 0 6 18 -45 68 -49 49 -77 64
-77 43z"/>
<path d="M8983 2430 c-49 -45 -65 -70 -45 -70 10 0 112 103 112 113 0 15 -17
4 -67 -43z"/>
<path d="M9480 2451 c0 -11 -23 -36 -55 -60 -58 -44 -65 -55 -39 -65 38 -14
73 1 44 19 -6 3 9 21 32 39 28 22 47 30 55 24 23 -18 25 14 2 38 -27 29 -39
31 -39 5z"/>
<path d="M4540 2425 c0 -13 13 -15 77 -13 50 2 78 7 81 16 3 9 -17 12 -77 12
-66 0 -81 -3 -81 -15z"/>
<path d="M8095 2430 c-10 -16 17 -21 90 -18 44 2 70 8 73 16 5 15 -153 17
-163 2z"/>
<path d="M3702 2422 c6 -15 105 -102 117 -102 22 0 10 17 -43 63 -49 42 -83
60 -74 39z"/>
<path d="M9022 2384 c-49 -43 -63 -64 -44 -64 5 0 35 25 68 55 72 66 51 74
-24 9z"/>
<path d="M3660 2381 c0 -11 110 -111 122 -111 20 0 4 22 -51 69 -59 52 -71 58
-71 42z"/>
<path d="M9067 2342 c-50 -42 -71 -72 -49 -72 4 0 34 24 66 54 75 66 59 83
-17 18z"/>
<path d="M3570 2372 c0 -9 154 -140 174 -148 36 -14 11 16 -69 84 -79 67 -105
83 -105 64z"/>
<path d="M9123 2309 c-74 -62 -97 -89 -77 -89 12 0 174 141 174 151 0 18 -15
8 -97 -62z"/>
<path d="M4540 2355 c0 -12 16 -15 80 -15 64 0 80 3 80 15 0 12 -16 15 -80 15
-64 0 -80 -3 -80 -15z"/>
<path d="M8097 2364 c-16 -17 10 -24 84 -24 64 0 79 3 79 15 0 12 -15 15 -78
15 -43 0 -82 -3 -85 -6z"/>
<path d="M4106 2293 c-7 -7 72 -93 86 -93 19 0 5 29 -30 63 -40 39 -44 41 -56
30z"/>
<path d="M4540 2285 c0 -12 16 -15 80 -15 64 0 80 3 80 15 0 12 -16 15 -80 15
-64 0 -80 -3 -80 -15z"/>
<path d="M8097 2294 c-16 -17 10 -24 84 -24 60 0 80 3 77 13 -5 13 -148 23
-161 11z"/>
<path d="M8630 2255 c-24 -24 -41 -48 -37 -52 8 -7 97 75 97 89 0 17 -18 6
-60 -37z"/>
<path d="M3585 2281 c-7 -13 115 -112 129 -104 5 4 -8 22 -30 41 -62 54 -92
73 -99 63z"/>
<path d="M9140 2243 c-48 -40 -73 -73 -55 -73 13 0 125 96 125 108 0 19 -12
14 -70 -35z"/>
<path d="M4790 2240 c-22 -22 -26 -51 -10 -80 7 -14 7 -25 -2 -39 -19 -30 13
-71 56 -71 35 0 63 21 51 40 -4 7 -12 7 -25 0 -27 -14 -47 -12 -54 6 -4 10 3
18 24 26 39 13 38 31 -1 45 -33 13 -37 38 -7 57 13 8 22 6 38 -9 16 -15 23
-16 33 -6 9 10 7 16 -12 32 -30 25 -66 24 -91 -1z"/>
<path d="M7920 2240 c-23 -23 -26 -63 -6 -82 11 -11 11 -16 -1 -35 -14 -21
-14 -26 1 -48 19 -29 75 -35 96 -10 18 21 3 38 -21 24 -11 -6 -27 -8 -35 -5
-18 7 -19 36 -1 36 7 0 22 7 33 14 18 14 18 15 -13 26 -38 14 -51 40 -27 57
23 17 29 16 49 -3 25 -26 44 -1 20 26 -23 26 -69 26 -95 0z"/>
<path d="M3550 2228 c0 -14 104 -98 120 -98 22 0 7 19 -49 64 -64 49 -71 53
-71 34z"/>
<path d="M9173 2192 c-62 -47 -74 -62 -50 -62 16 0 127 87 127 100 0 17 -14
11 -77 -38z"/>
<path d="M4540 2215 c0 -12 15 -15 81 -15 60 0 80 3 77 13 -3 8 -31 13 -81 15
-64 2 -77 0 -77 -13z"/>
<path d="M8102 2224 c-30 -13 6 -24 79 -24 60 0 80 3 77 13 -5 12 -130 21
-156 11z"/>
<path d="M3510 2178 c1 -12 110 -98 124 -98 19 0 -1 25 -51 65 -61 47 -73 53
-73 33z"/>
<path d="M9212 2144 c-58 -43 -75 -64 -52 -64 14 0 130 91 130 102 0 16 -17 8
-78 -38z"/>
<path d="M3993 2153 c-13 -2 -23 -9 -23 -14 0 -12 297 -12 304 0 3 5 -8 11
-25 15 -34 7 -220 6 -256 -1z"/>
<path d="M4407 2153 c-9 -2 -15 -9 -12 -14 8 -11 305 -12 305 0 0 15 -242 27
-293 14z"/>
<path d="M4978 2153 c-73 -19 49 -23 672 -23 393 0 690 4 690 9 0 5 -10 11
-22 15 -26 7 -1314 6 -1340 -1z"/>
<path d="M6478 2153 c-73 -19 48 -23 667 -23 395 0 685 4 685 9 0 5 -7 12 -16
15 -18 7 -1310 6 -1336 -1z"/>
<path d="M8127 2153 c-20 -2 -35 -8 -32 -14 8 -12 305 -12 305 0 0 5 -7 12
-16 15 -16 6 -192 5 -257 -1z"/>
<path d="M8543 2153 c-13 -2 -23 -9 -23 -14 0 -5 66 -9 155 -9 148 0 198 10
118 24 -41 6 -214 6 -250 -1z"/>
<path d="M3475 2131 c-3 -6 22 -31 57 -56 63 -46 83 -54 76 -33 -7 19 -126 99
-133 89z"/>
<path d="M9247 2093 c-42 -29 -64 -50 -58 -56 11 -11 130 71 131 91 0 6 -1 12
-3 12 -1 0 -33 -21 -70 -47z"/>
<path d="M3380 2118 c1 -19 181 -141 192 -130 7 7 -169 142 -187 142 -3 0 -5
-6 -5 -12z"/>
<path d="M9325 2074 c-90 -62 -112 -81 -102 -90 7 -8 189 117 195 134 7 21
-11 13 -93 -44z"/>
<path d="M9650 2104 c-57 -39 -68 -92 -25 -120 22 -14 32 -15 65 -5 37 11 90
60 90 85 0 6 -7 22 -16 34 -19 27 -77 30 -114 6z m95 -39 c0 -24 -61 -67 -90
-63 -31 5 -31 42 1 67 36 28 89 26 89 -4z"/>
<path d="M3001 2064 c-11 -15 -21 -33 -21 -40 0 -21 37 -54 59 -54 11 0 23 -4
26 -10 16 -26 43 -29 69 -9 29 23 36 69 11 69 -8 0 -15 -8 -15 -19 0 -23 -25
-46 -34 -32 -4 6 -4 22 0 36 5 19 2 25 -10 25 -9 0 -16 -4 -16 -9 0 -17 -34
-22 -48 -7 -13 12 -13 18 -2 30 7 9 19 16 27 16 8 0 13 6 11 13 -8 22 -35 18
-57 -9z"/>
<path d="M4320 2072 c0 -13 144 -152 158 -152 23 0 12 15 -61 88 -65 65 -97
86 -97 64z"/>
<path d="M4540 2070 c0 -6 33 -10 80 -10 47 0 80 4 80 10 0 6 -33 10 -80 10
-47 0 -80 -4 -80 -10z"/>
<path d="M8095 2070 c3 -5 42 -10 86 -10 46 0 79 4 79 10 0 6 -35 10 -86 10
-54 0 -83 -4 -79 -10z"/>
<path d="M8380 2005 c-41 -41 -71 -78 -67 -82 8 -7 157 135 157 149 0 18 -20
4 -90 -67z"/>
<path d="M3400 2021 c0 -9 120 -91 133 -91 21 0 0 24 -52 60 -59 40 -81 48
-81 31z"/>
<path d="M9318 1992 c-32 -20 -58 -43 -58 -50 0 -8 4 -12 8 -10 23 9 132 84
132 91 0 15 -27 5 -82 -31z"/>
<path d="M4540 2000 c0 -6 33 -10 80 -10 47 0 80 4 80 10 0 6 -33 10 -80 10
-47 0 -80 -4 -80 -10z"/>
<path d="M8090 2000 c0 -6 35 -10 85 -10 50 0 85 4 85 10 0 6 -35 10 -85 10
-50 0 -85 -4 -85 -10z"/>
<path d="M9730 1980 c-24 -24 -26 -57 -3 -82 15 -17 15 -18 0 -18 -10 0 -17 3
-17 8 -1 16 -38 54 -48 48 -7 -4 -2 -22 15 -51 13 -25 27 -45 29 -45 14 0 84
42 84 50 0 6 -11 15 -25 20 -34 13 -34 47 0 56 35 9 53 -1 57 -31 4 -33 22
-33 26 1 7 57 -74 88 -118 44z"/>
<path d="M3387 1952 c46 -38 111 -74 117 -63 7 10 -114 91 -135 91 -8 -1 0
-12 18 -28z"/>
<path d="M9348 1939 c-51 -35 -72 -59 -51 -59 13 0 133 82 133 91 0 17 -26 7
-82 -32z"/>
<path d="M2924 1935 c-19 -29 -13 -53 25 -89 54 -52 141 -41 141 18 0 74 -128
129 -166 71z m110 -26 c35 -28 32 -63 -6 -67 -34 -4 -94 47 -85 71 9 24 59 21
91 -4z"/>
<path d="M4540 1930 c0 -6 33 -10 80 -10 47 0 80 4 80 10 0 6 -33 10 -80 10
-47 0 -80 -4 -80 -10z"/>
<path d="M8095 1930 c-4 -6 25 -10 79 -10 51 0 86 4 86 10 0 6 -33 10 -79 10
-44 0 -83 -4 -86 -10z"/>
<path d="M3330 1921 c0 -8 124 -91 136 -91 2 0 4 6 4 13 0 7 -29 30 -63 50
-67 39 -77 43 -77 28z"/>
<path d="M9391 1895 c-61 -38 -77 -52 -69 -61 8 -7 148 75 148 87 0 16 -24 8
-79 -26z"/>
<path d="M9860 1883 c0 -12 -23 -30 -65 -52 -36 -18 -65 -37 -65 -42 0 -9 42
-29 61 -29 6 0 8 8 5 18 -5 14 4 23 38 39 29 15 47 18 54 11 19 -19 23 11 5
42 -19 34 -33 39 -33 13z"/>
<path d="M3300 1868 c0 -14 128 -93 137 -85 9 10 -6 24 -68 61 -68 40 -69 41
-69 24z"/>
<path d="M9420 1839 c-61 -37 -84 -59 -62 -59 13 0 130 69 137 81 14 22 -17
13 -75 -22z"/>
<path d="M4540 1860 c0 -6 33 -10 80 -10 47 0 80 4 80 10 0 6 -33 10 -80 10
-47 0 -80 -4 -80 -10z"/>
<path d="M8095 1860 c-4 -6 25 -10 79 -10 51 0 86 4 86 10 0 6 -33 10 -79 10
-44 0 -83 -4 -86 -10z"/>
<path d="M3212 1848 c5 -15 176 -118 196 -118 29 0 6 20 -86 73 -104 60 -116
65 -110 45z"/>
<path d="M9471 1802 c-77 -44 -109 -72 -83 -72 18 0 175 95 180 108 6 20 -9
14 -97 -36z"/>
<path d="M3692 1788 c4 -10 69 -14 274 -16 270 -3 320 0 309 18 -4 6 -120 10
-296 10 -228 0 -290 -3 -287 -12z"/>
<path d="M4465 1790 c-10 -17 17 -21 125 -18 72 2 105 7 108 16 5 15 -223 18
-233 2z"/>
<path d="M4963 1788 c3 -10 149 -13 687 -13 538 0 684 3 688 13 3 9 -139 12
-688 12 -549 0 -691 -3 -687 -12z"/>
<path d="M6463 1788 c3 -10 148 -13 682 -13 534 0 679 3 683 13 3 9 -138 12
-683 12 -545 0 -686 -3 -682 -12z"/>
<path d="M8095 1790 c-10 -17 17 -21 125 -18 72 2 105 7 108 16 5 15 -223 18
-233 2z"/>
<path d="M8522 1788 c6 -16 578 -19 578 -3 0 6 -105 11 -291 13 -231 2 -290 0
-287 -10z"/>
<path d="M3240 1758 c0 -13 109 -78 129 -78 27 0 6 21 -54 54 -74 40 -75 41
-75 24z"/>
<path d="M9478 1732 c-65 -35 -83 -52 -55 -52 20 1 130 64 135 78 6 19 -7 15
-80 -26z"/>
<path d="M4540 1715 c0 -12 16 -15 80 -15 64 0 80 3 80 15 0 12 -16 15 -80 15
-64 0 -80 -3 -80 -15z"/>
<path d="M8095 1720 c-10 -16 17 -21 90 -18 44 2 70 8 73 16 5 15 -153 17
-163 2z"/>
<path d="M3210 1700 c0 -14 138 -81 145 -70 3 5 -23 25 -58 44 -66 37 -87 43
-87 26z"/>
<path d="M9503 1677 c-35 -17 -63 -37 -63 -44 0 -7 3 -13 6 -13 13 0 144 75
144 82 0 14 -24 7 -87 -25z"/>
<path d="M3182 1648 c5 -14 115 -77 136 -78 30 0 6 23 -58 55 -77 39 -83 41
-78 23z"/>
<path d="M4540 1645 c0 -12 16 -15 80 -15 64 0 80 3 80 15 0 12 -16 15 -80 15
-64 0 -80 -3 -80 -15z"/>
<path d="M8097 1654 c-16 -17 10 -24 84 -24 60 0 80 3 77 13 -5 13 -148 23
-161 11z"/>
<path d="M9535 1625 c-51 -29 -80 -55 -61 -55 16 0 146 71 146 80 0 16 -21 10
-85 -25z"/>
<path d="M3150 1592 c0 -8 124 -72 140 -72 26 0 4 19 -55 48 -67 33 -85 38
-85 24z"/>
<path d="M9558 1568 c-65 -29 -85 -48 -53 -48 23 0 135 59 135 70 0 14 -8 12
-82 -22z"/>
<path d="M4540 1575 c0 -12 16 -15 80 -15 64 0 80 3 80 15 0 12 -16 15 -80 15
-64 0 -80 -3 -80 -15z"/>
<path d="M8097 1584 c-16 -17 10 -24 84 -24 60 0 80 3 77 13 -5 13 -148 23
-161 11z"/>
<path d="M3060 1568 c1 -19 201 -111 213 -99 7 7 -26 28 -97 61 -60 27 -110
50 -112 50 -2 0 -4 -6 -4 -12z"/>
<path d="M9623 1530 c-57 -27 -103 -54 -103 -59 0 -15 -1 -16 115 39 62 28
104 54 100 60 -8 13 6 17 -112 -40z"/>
<path d="M4770 1525 c0 -11 11 -15 45 -15 25 0 45 -4 45 -9 0 -5 -20 -25 -45
-45 -47 -39 -59 -78 -33 -104 18 -18 73 -14 99 7 22 18 23 20 6 27 -10 3 -23
2 -30 -5 -14 -14 -44 -14 -53 1 -5 7 11 27 40 52 34 30 47 49 49 71 l2 30 -62
3 c-52 2 -63 0 -63 -13z"/>
<path d="M7900 1525 c0 -11 11 -15 45 -15 57 0 58 -16 5 -53 -65 -46 -66 -109
-1 -115 32 -3 81 20 81 38 0 13 -37 13 -45 0 -3 -5 -15 -10 -26 -10 -33 0 -22
32 27 76 34 31 45 48 42 66 -3 21 -9 23 -65 26 -52 2 -63 0 -63 -13z"/>
<path d="M4563 1513 c-51 -10 -18 -23 58 -23 58 0 80 3 77 12 -4 12 -94 20
-135 11z"/>
<path d="M8102 1514 c-30 -13 6 -24 79 -24 60 0 80 3 77 13 -5 12 -130 21
-156 11z"/>
<path d="M9954 1501 c-23 -10 -44 -26 -47 -36 -33 -85 85 -122 157 -49 24 23
20 70 -6 88 -29 21 -54 20 -104 -3z m93 -27 c9 -24 -9 -47 -48 -60 -39 -14
-69 -3 -69 25 0 36 104 67 117 35z"/>
<path d="M3100 1478 c0 -13 111 -68 138 -68 39 0 -12 31 -125 77 -7 3 -13 -1
-13 -9z"/>
<path d="M9620 1460 c-59 -26 -88 -50 -61 -50 22 0 141 59 141 69 0 15 -6 14
-80 -19z"/>
<path d="M2706 1468 c-3 -7 -9 -28 -15 -47 -14 -42 -14 -51 0 -51 5 0 17 16
25 36 17 41 23 39 44 -19 19 -52 63 -74 86 -42 18 24 15 77 -4 83 -9 3 -13 -4
-12 -19 6 -66 -22 -68 -44 -3 -15 46 -39 73 -64 74 -7 0 -14 -6 -16 -12z"/>
<path d="M3480 1430 c0 -6 138 -10 395 -10 257 0 395 4 395 10 0 6 -138 10
-395 10 -257 0 -395 -4 -395 -10z"/>
<path d="M4390 1430 c0 -6 58 -10 155 -10 97 0 155 4 155 10 0 6 -58 10 -155
10 -97 0 -155 -4 -155 -10z"/>
<path d="M4960 1430 c0 -7 237 -10 690 -10 453 0 690 3 690 10 0 7 -237 10
-690 10 -453 0 -690 -3 -690 -10z"/>
<path d="M6460 1430 c0 -7 235 -10 685 -10 450 0 685 3 685 10 0 7 -235 10
-685 10 -450 0 -685 -3 -685 -10z"/>
<path d="M8095 1430 c4 -6 67 -10 156 -10 93 0 149 4 149 10 0 6 -59 10 -156
10 -101 0 -153 -3 -149 -10z"/>
<path d="M8520 1430 c0 -6 138 -10 395 -10 257 0 395 4 395 10 0 6 -138 10
-395 10 -257 0 -395 -4 -395 -10z"/>
<path d="M3072 1419 c6 -17 141 -70 152 -59 6 6 -3 15 -27 25 -20 8 -53 22
-73 30 -43 18 -57 19 -52 4z"/>
<path d="M9641 1402 c-35 -15 -66 -33 -69 -41 -3 -9 2 -11 18 -6 51 16 130 56
130 65 0 14 -7 13 -79 -18z"/>
<path d="M10045 1378 c-30 -17 -36 -30 -30 -62 4 -24 2 -27 -13 -21 -57 24
-75 8 -22 -20 78 -41 184 11 150 74 -10 20 -40 41 -57 41 -4 0 -17 -6 -28 -12z
m54 -32 c23 -28 -17 -68 -45 -45 -19 16 -17 36 4 48 23 14 28 13 41 -3z"/>
<path d="M3050 1362 c0 -10 117 -62 138 -62 30 0 7 20 -53 44 -70 28 -85 31
-85 18z"/>
<path d="M4540 1360 c0 -6 33 -10 80 -10 47 0 80 4 80 10 0 6 -33 10 -80 10
-47 0 -80 -4 -80 -10z"/>
<path d="M5030 1362 c0 -4 48 -56 108 -115 96 -96 132 -123 132 -99 0 4 -48
56 -108 115 -96 96 -132 123 -132 99z"/>
<path d="M7630 1255 c-63 -63 -108 -115 -100 -115 15 0 230 208 230 223 0 18
-23 -1 -130 -108z"/>
<path d="M8090 1360 c0 -6 35 -10 85 -10 50 0 85 4 85 10 0 6 -35 10 -85 10
-50 0 -85 -4 -85 -10z"/>
<path d="M9653 1342 c-60 -24 -80 -42 -48 -42 22 0 145 52 145 62 0 14 -32 7
-97 -20z"/>
<path d="M2656 1321 c-27 -30 -17 -71 23 -98 61 -41 142 -23 141 33 -1 64
-122 112 -164 65z m98 -23 c46 -20 46 -68 0 -68 -54 0 -104 47 -77 73 10 11
49 8 77 -5z"/>
<path d="M3024 1302 c8 -13 146 -65 153 -58 11 11 -11 25 -71 46 -63 21 -90
25 -82 12z"/>
<path d="M9673 1283 c-56 -22 -81 -43 -54 -43 21 0 151 53 151 61 0 15 -32 9
-97 -18z"/>
<path d="M4540 1290 c0 -6 33 -10 80 -10 47 0 80 4 80 10 0 6 -33 10 -80 10
-47 0 -80 -4 -80 -10z"/>
<path d="M8095 1290 c-4 -6 25 -10 79 -10 51 0 86 4 86 10 0 6 -33 10 -79 10
-44 0 -83 -4 -86 -10z"/>
<path d="M2940 1272 c0 -9 188 -82 211 -82 46 0 -103 71 -183 87 -16 3 -28 1
-28 -5z"/>
<path d="M9810 1273 c-8 -3 -52 -19 -97 -35 -74 -27 -105 -48 -70 -48 21 0
217 74 217 82 0 9 -27 9 -50 1z"/>
<path d="M10130 1246 c0 -8 -26 -20 -65 -31 -73 -19 -87 -32 -60 -52 24 -17
49 -17 42 0 -7 19 87 49 102 34 16 -16 24 -2 16 32 -6 30 -35 44 -35 17z"/>
<path d="M4540 1220 c0 -6 30 -10 70 -10 39 0 73 0 77 -1 4 0 9 4 11 10 2 7
-24 11 -77 11 -47 0 -81 -4 -81 -10z"/>
<path d="M8095 1220 c-4 -6 25 -10 79 -10 51 0 86 4 86 10 0 6 -33 10 -79 10
-44 0 -83 -4 -86 -10z"/>
<path d="M2982 1188 c2 -6 35 -22 73 -35 79 -26 88 -28 83 -11 -2 6 -35 22
-73 35 -79 26 -88 28 -83 11z"/>
<path d="M9725 1175 c-52 -19 -84 -45 -57 -45 21 0 136 48 140 59 5 15 -13 12
-83 -14z"/>
<path d="M4540 1150 c0 -6 33 -10 80 -10 47 0 80 4 80 10 0 6 -33 10 -80 10
-47 0 -80 -4 -80 -10z"/>
<path d="M8095 1150 c-9 -14 33 -22 100 -18 35 2 60 8 63 16 5 15 -153 18
-163 2z"/>
<path d="M2960 1131 c0 -9 112 -51 137 -51 7 0 13 4 13 10 0 5 -31 18 -69 30
-78 23 -81 23 -81 11z"/>
<path d="M9742 1116 c-35 -12 -62 -26 -60 -31 4 -12 23 -9 90 14 29 10 54 23
56 29 5 16 -13 14 -86 -12z"/>
<path d="M3332 1078 c6 -17 936 -19 941 -3 1 7 -162 11 -471 13 -377 2 -473 0
-470 -10z"/>
<path d="M4465 1080 c-10 -17 17 -21 125 -18 72 2 105 7 108 16 5 15 -223 18
-233 2z"/>
<path d="M4965 1080 c-3 -6 0 -12 7 -15 7 -3 316 -4 687 -3 529 2 675 6 679
16 5 16 -1363 18 -1373 2z"/>
<path d="M6460 1075 c0 -13 83 -15 685 -15 602 0 685 2 685 15 0 13 -83 15
-685 15 -602 0 -685 -2 -685 -15z"/>
<path d="M8097 1084 c-17 -18 14 -24 119 -24 95 0 114 3 114 15 0 12 -19 15
-113 15 -63 0 -117 -3 -120 -6z"/>
<path d="M8522 1078 c4 -10 109 -14 471 -16 411 -2 467 0 467 13 0 13 -58 15
-471 15 -372 0 -470 -3 -467 -12z"/>
<path d="M2940 1071 c0 -10 114 -51 142 -51 40 0 14 20 -51 40 -76 22 -91 24
-91 11z"/>
<path d="M9766 1060 c-64 -20 -94 -40 -60 -40 34 0 137 35 142 48 5 16 -12 14
-82 -8z"/>
<path d="M2932 1009 c4 -12 110 -49 141 -49 39 0 13 20 -52 40 -78 23 -94 25
-89 9z"/>
<path d="M4540 1005 c0 -12 16 -15 80 -15 64 0 80 3 80 15 0 12 -16 15 -80 15
-64 0 -80 -3 -80 -15z"/>
<path d="M5395 1010 c-5 -8 31 -51 101 -121 97 -97 134 -125 134 -101 0 4 -51
58 -114 121 -76 76 -116 109 -121 101z"/>
<path d="M7280 905 c-63 -63 -111 -118 -107 -122 4 -4 60 45 124 109 63 63
111 118 106 121 -5 3 -61 -45 -123 -108z"/>
<path d="M8097 1014 c-16 -17 10 -24 84 -24 60 0 80 3 77 13 -5 13 -148 23
-161 11z"/>
<path d="M9773 999 c-35 -11 -63 -24 -63 -29 0 -14 14 -13 91 10 38 12 69 25
69 30 0 14 -26 11 -97 -11z"/>
<path d="M2842 968 c5 -13 217 -73 226 -64 12 13 -16 25 -111 50 -112 30 -120
31 -115 14z"/>
<path d="M9828 952 c-59 -16 -98 -32 -98 -39 0 -16 0 -16 68 3 32 8 81 22 110
30 29 8 50 19 47 24 -8 13 -15 12 -127 -18z"/>
<path d="M4540 935 c0 -12 16 -15 80 -15 64 0 80 3 80 15 0 12 -16 15 -80 15
-64 0 -80 -3 -80 -15z"/>
<path d="M8097 944 c-16 -17 10 -24 84 -24 60 0 80 3 77 13 -5 13 -148 23
-161 11z"/>
<path d="M2892 888 c5 -13 147 -53 156 -43 11 11 -14 24 -74 39 -74 19 -87 20
-82 4z"/>
<path d="M9808 881 c-62 -18 -78 -28 -57 -36 20 -7 142 28 147 43 5 15 -18 14
-90 -7z"/>
<path d="M4540 865 c0 -12 15 -15 81 -15 60 0 80 3 77 13 -3 8 -31 13 -81 15
-64 2 -77 0 -77 -13z"/>
<path d="M8097 874 c-16 -17 10 -24 84 -24 60 0 80 3 77 13 -5 13 -148 23
-161 11z"/>
<path d="M10154 863 c-12 -2 -32 -15 -45 -29 -19 -20 -21 -29 -13 -51 20 -57
99 -68 158 -22 67 53 0 122 -100 102z m87 -39 c18 -22 1 -46 -40 -58 -39 -11
-84 6 -79 31 7 38 94 57 119 27z"/>
<path d="M2882 828 c5 -13 144 -49 153 -40 13 14 0 21 -66 36 -86 19 -92 19
-87 4z"/>
<path d="M9823 823 c-41 -10 -63 -20 -63 -29 0 -10 7 -13 25 -8 13 3 48 11 76
18 29 6 54 17 57 24 5 15 -15 14 -95 -5z"/>
<path d="M4785 820 c-3 -6 1 -13 9 -16 13 -5 16 -24 16 -95 0 -49 3 -89 8 -89
4 0 21 11 37 25 30 24 30 25 7 31 -21 6 -22 12 -20 65 2 46 7 59 22 63 10 2
15 9 11 15 -8 14 -82 14 -90 1z"/>
<path d="M7920 815 c0 -8 5 -15 10 -15 6 0 10 -37 10 -90 0 -49 4 -90 9 -90
13 0 61 40 61 51 0 5 -9 9 -19 9 -18 0 -19 5 -14 58 3 32 12 61 19 65 27 16
13 27 -31 27 -33 0 -45 -4 -45 -15z"/>
<path d="M2507 793 c-10 -10 -8 -61 2 -67 5 -4 11 -1 13 6 3 9 21 9 76 -2 40
-7 75 -11 77 -8 3 3 0 17 -6 32 -13 27 -39 36 -39 13 0 -11 -10 -11 -50 -3
-29 6 -50 15 -50 23 0 14 -12 17 -23 6z"/>
<path d="M4540 790 c0 -6 33 -10 80 -10 47 0 80 4 80 10 0 6 -33 10 -80 10
-47 0 -80 -4 -80 -10z"/>
<path d="M8095 790 c3 -5 42 -10 86 -10 46 0 79 4 79 10 0 6 -35 10 -86 10
-54 0 -83 -4 -79 -10z"/>
<path d="M2865 770 c-7 -11 -2 -13 67 -29 58 -14 106 -14 93 -2 -8 7 -131 41
-150 41 -2 0 -7 -5 -10 -10z"/>
<path d="M9841 764 c-70 -15 -76 -18 -67 -32 8 -13 148 20 154 36 4 14 -4 14
-87 -4z"/>
<path d="M3230 720 c0 -7 180 -10 520 -10 340 0 520 3 520 10 0 7 -180 10
-520 10 -340 0 -520 -3 -520 -10z"/>
<path d="M4390 720 c0 -6 58 -10 155 -10 97 0 155 4 155 10 0 6 -58 10 -155
10 -97 0 -155 -4 -155 -10z"/>
<path d="M4960 720 c0 -7 237 -10 690 -10 453 0 690 3 690 10 0 7 -237 10
-690 10 -453 0 -690 -3 -690 -10z"/>
<path d="M6460 720 c0 -7 235 -10 685 -10 450 0 685 3 685 10 0 7 -235 10
-685 10 -450 0 -685 -3 -685 -10z"/>
<path d="M8090 720 c0 -6 58 -10 155 -10 97 0 155 4 155 10 0 6 -58 10 -155
10 -97 0 -155 -4 -155 -10z"/>
<path d="M8520 720 c0 -7 180 -10 520 -10 340 0 520 3 520 10 0 7 -180 10
-520 10 -340 0 -520 -3 -520 -10z"/>
<path d="M2855 710 c-3 -5 0 -12 7 -15 29 -10 105 -25 131 -25 46 0 21 18 -41
30 -31 6 -64 14 -74 16 -9 3 -19 0 -23 -6z"/>
<path d="M9852 703 c-40 -9 -71 -20 -70 -25 5 -13 11 -12 91 2 45 8 67 16 67
26 0 8 -3 13 -7 13 -5 -1 -41 -8 -81 -16z"/>
<path d="M10124 659 c7 -67 12 -82 28 -73 6 4 8 23 4 46 -6 36 -5 40 11 34 47
-19 133 -34 139 -24 9 14 3 17 -62 34 -32 8 -72 22 -88 30 -16 7 -31 14 -34
14 -3 0 -2 -27 2 -61z"/>
<path d="M2498 683 c-41 -48 -29 -83 36 -108 99 -38 170 36 95 99 -37 32 -107
36 -131 9z m113 -32 c20 -16 22 -23 13 -38 -16 -24 -81 -20 -108 6 -16 17 -17
23 -6 35 17 22 73 20 101 -3z"/>
<path d="M2775 650 c-4 -6 -5 -13 -4 -15 10 -8 219 -38 225 -32 13 12 -1 17
-92 33 -49 8 -96 17 -106 20 -9 3 -19 0 -23 -6z"/>
<path d="M4540 650 c0 -6 33 -10 80 -10 47 0 80 4 80 10 0 6 -33 10 -80 10
-47 0 -80 -4 -80 -10z"/>
<path d="M5750 647 c0 -21 287 -300 300 -292 8 5 -40 60 -136 156 -82 82 -152
149 -156 149 -5 0 -8 -6 -8 -13z"/>
<path d="M6887 513 c-80 -81 -143 -151 -140 -156 6 -9 303 281 303 295 0 21
-29 -4 -163 -139z"/>
<path d="M8090 650 c0 -6 35 -10 85 -10 50 0 85 4 85 10 0 6 -35 10 -85 10
-50 0 -85 -4 -85 -10z"/>
<path d="M9995 655 c-5 -2 -54 -11 -107 -20 -92 -16 -132 -35 -70 -35 50 1
206 35 205 45 -2 11 -13 15 -28 10z"/>
<path d="M10290 586 c0 -15 -30 -26 -75 -26 -69 -1 -98 -27 -56 -50 27 -14 44
-13 38 4 -4 10 7 15 41 19 26 3 51 1 57 -4 5 -5 13 -9 17 -9 9 0 11 41 2 64
-8 20 -24 21 -24 2z"/>
<path d="M4540 580 c0 -6 33 -10 80 -10 47 0 80 4 80 10 0 6 -33 10 -80 10
-47 0 -80 -4 -80 -10z"/>
<path d="M8095 580 c-4 -6 25 -10 79 -10 51 0 86 4 86 10 0 6 -33 10 -79 10
-44 0 -83 -4 -86 -10z"/>
<path d="M2830 570 c0 -10 14 -14 97 -28 29 -5 55 -7 58 -4 13 14 0 21 -58 31
-78 14 -97 14 -97 1z"/>
<path d="M9865 568 c-82 -15 -81 -32 2 -24 78 7 103 13 103 27 0 11 -38 10
-105 -3z"/>
<path d="M4540 505 c0 -13 13 -15 77 -13 50 2 78 7 81 16 3 9 -17 12 -77 12
-66 0 -81 -3 -81 -15z"/>
<path d="M8095 510 c-9 -14 33 -22 100 -18 35 2 60 8 63 16 5 15 -153 18 -163
2z"/>
<path d="M663 435 c-27 -19 -34 -48 -19 -77 7 -13 11 -40 8 -60 -3 -30 0 -39
21 -52 48 -32 114 23 88 72 -7 14 -8 23 -1 27 5 3 10 21 10 40 0 55 -59 83
-107 50z m61 -21 c21 -8 21 -38 0 -55 -11 -9 -20 -10 -32 -2 -43 27 -15 75 32
57z m6 -125 c0 -14 -7 -19 -25 -19 -18 0 -25 5 -25 19 0 11 6 21 13 24 20 7
37 -4 37 -24z"/>
<path d="M1424 413 c-34 -86 -48 -113 -65 -129 -39 -35 -25 -45 59 -42 86 3
105 21 27 26 l-50 3 38 79 c36 74 40 100 16 100 -6 0 -17 -17 -25 -37z"/>
<path d="M2795 425 c-29 -29 -33 -79 -9 -114 13 -18 24 -22 50 -19 23 3 34 0
34 -8 0 -8 -17 -14 -42 -16 -32 -2 -44 -8 -46 -21 -3 -16 3 -18 58 -15 l62 3
4 57 c2 31 0 59 -5 62 -5 3 -20 -3 -34 -14 -30 -24 -41 -25 -57 -5 -16 20 -5
62 21 75 16 9 26 8 44 -4 30 -20 44 -3 19 25 -24 27 -70 24 -99 -6z"/>
<path d="M4243 440 c-12 -5 -27 -19 -33 -30 -13 -24 -6 -70 11 -70 8 0 8 -4 0
-14 -21 -24 -9 -69 21 -84 31 -15 78 -1 78 23 0 12 -8 14 -40 9 -33 -5 -40 -4
-40 10 0 10 13 22 30 28 35 12 35 30 -1 38 -17 4 -25 14 -27 33 -3 23 0 27 22
27 14 0 28 -4 31 -10 9 -15 35 -12 35 4 0 29 -51 50 -87 36z"/>
<path d="M4540 435 c0 -13 13 -15 77 -13 50 2 78 7 81 16 3 9 -17 12 -77 12
-66 0 -81 -3 -81 -15z"/>
<path d="M6372 439 c-26 -10 -52 -64 -52 -109 0 -121 142 -135 151 -15 7 98
-34 150 -99 124z m58 -48 c18 -36 12 -98 -12 -115 -37 -26 -58 -5 -58 57 0 29
5 58 12 65 18 18 46 14 58 -7z"/>
<path d="M8095 440 c-10 -16 17 -21 90 -18 44 2 70 8 73 16 5 15 -153 17 -163
2z"/>
<path d="M8496 426 c-29 -28 -33 -57 -12 -79 10 -10 11 -18 5 -24 -20 -20 -6
-67 23 -81 23 -11 32 -10 58 3 40 21 29 37 -21 29 -32 -5 -39 -4 -39 10 0 10
13 22 30 28 35 12 35 30 -1 38 -17 4 -25 14 -27 33 -3 23 0 27 22 27 14 0 28
-4 31 -10 9 -15 35 -12 35 4 0 18 -19 33 -52 41 -21 5 -33 1 -52 -19z"/>
<path d="M9916 429 c-21 -16 -26 -29 -26 -63 0 -54 25 -80 70 -74 20 3 30 0
30 -9 0 -8 -13 -13 -37 -13 -44 0 -69 -13 -59 -29 10 -16 116 -14 120 2 10 30
13 96 5 108 -6 11 -13 9 -32 -9 -27 -26 -52 -28 -61 -6 -11 28 -6 51 14 69 17
15 24 16 50 5 39 -16 52 -4 21 21 -30 25 -62 24 -95 -2z"/>
<path d="M11380 396 c-12 -31 -35 -76 -51 -101 -16 -25 -29 -48 -29 -50 0 -3
36 -5 81 -5 60 0 80 3 77 13 -3 7 -25 13 -52 15 -26 2 -46 6 -44 10 25 46 59
128 61 144 4 43 -21 27 -43 -26z"/>
<path d="M12060 443 c-39 -14 -52 -64 -24 -95 14 -14 14 -20 4 -33 -34 -42 26
-98 78 -72 23 10 27 20 29 57 2 25 5 61 9 81 5 31 2 39 -17 53 -23 16 -51 19
-79 9z m64 -45 c15 -24 -13 -53 -43 -43 -21 6 -29 43 -14 59 12 12 45 2 57
-16z m-6 -107 c-2 -9 -13 -17 -26 -19 -16 -3 -22 2 -22 16 0 11 6 22 13 25 20
7 38 -4 35 -22z"/>
<path d="M3500 412 c0 -19 -6 -32 -17 -37 -17 -6 -17 -7 -1 -19 11 -8 18 -30
20 -67 4 -77 23 -75 81 9 26 38 47 72 47 75 0 4 -20 7 -44 7 -41 0 -45 2 -48
27 -4 41 -38 44 -38 5z m64 -87 c-9 -14 -18 -25 -20 -25 -2 0 -4 11 -4 25 0
18 5 25 20 25 20 0 20 -1 4 -25z"/>
<path d="M4910 426 c0 -18 40 -31 69 -21 36 11 24 -20 -19 -50 -60 -41 -67
-95 -15 -115 28 -11 64 -1 84 24 18 22 5 33 -19 18 -11 -7 -29 -12 -40 -12
-34 0 -23 33 26 74 36 30 45 43 42 64 -3 26 -6 27 -65 30 -51 2 -63 0 -63 -12z"/>
<path d="M5640 425 c0 -8 7 -15 16 -15 14 0 15 -11 9 -84 -8 -93 0 -108 40
-79 27 20 33 43 10 43 -12 0 -15 13 -15 60 0 47 3 60 15 60 8 0 15 7 15 15 0
11 -12 15 -45 15 -33 0 -45 -4 -45 -15z"/>
<path d="M7065 430 c-3 -6 1 -13 9 -16 13 -5 16 -24 16 -95 0 -49 4 -89 9 -89
6 0 23 11 38 25 l28 25 -22 6 c-21 6 -23 12 -20 63 1 43 6 58 20 63 10 4 15
12 12 18 -8 13 -82 13 -90 0z"/>
<path d="M7760 426 c0 -19 31 -29 64 -20 39 9 32 -10 -19 -52 -54 -44 -61 -83
-19 -110 23 -16 28 -16 60 -1 19 9 34 23 34 32 0 17 -25 21 -35 5 -9 -14 -42
-13 -51 2 -4 7 11 28 38 52 48 43 61 66 52 91 -8 21 -124 22 -124 1z"/>
<path d="M9200 415 c0 -14 -7 -28 -15 -31 -8 -4 -15 -12 -15 -20 0 -8 7 -14
15 -14 12 0 15 -13 15 -60 0 -45 4 -60 14 -60 15 0 106 120 106 139 0 6 -20
11 -45 11 -43 0 -45 1 -45 30 0 20 -5 30 -15 30 -9 0 -15 -9 -15 -25z m61 -82
c-27 -47 -31 -49 -31 -15 0 26 4 32 20 32 17 0 19 -3 11 -17z"/>
<path d="M2090 390 c-39 -39 -16 -100 38 -100 l26 0 -28 -29 c-19 -19 -24 -31
-16 -36 14 -8 47 20 66 57 43 83 -26 168 -86 108z m65 -40 c0 -18 -6 -26 -23
-28 -13 -2 -25 3 -28 12 -10 26 4 48 28 44 17 -2 23 -10 23 -28z"/>
<path d="M10630 390 c-39 -39 -16 -100 38 -100 l26 0 -28 -29 c-19 -19 -24
-31 -16 -36 14 -8 47 20 66 57 43 83 -26 168 -86 108z m65 -40 c0 -18 -6 -26
-23 -28 -24 -4 -38 18 -28 44 3 9 15 14 28 12 17 -2 23 -10 23 -28z"/>
<path d="M4467 374 c-17 -18 14 -24 119 -24 95 0 114 3 114 15 0 12 -19 15
-113 15 -63 0 -117 -3 -120 -6z"/>
<path d="M8097 374 c-17 -18 14 -24 119 -24 95 0 114 3 114 15 0 12 -19 15
-113 15 -63 0 -117 -3 -120 -6z"/>
<path d="M4540 295 c0 -12 16 -15 80 -15 64 0 80 3 80 15 0 12 -16 15 -80 15
-64 0 -80 -3 -80 -15z"/>
<path d="M8097 304 c-16 -17 10 -24 84 -24 60 0 80 3 77 13 -5 13 -148 23
-161 11z"/>
</g>
</svg>
