<?xml version="1.0" standalone="no"?>
<!DOCTYPE svg PUBLIC "-//W3C//DTD SVG 20010904//EN"
 "http://www.w3.org/TR/2001/REC-SVG-20010904/DTD/svg10.dtd">
<svg version="1.0" xmlns="http://www.w3.org/2000/svg"
 width="853.000000pt" height="1280.000000pt" viewBox="0 0 853.000000 1280.000000"
 preserveAspectRatio="xMidYMid meet">
<metadata>
Created by potrace 1.15, written by Peter Selinger 2001-2017
</metadata>
<g transform="translate(0.000000,1280.000000) scale(0.100000,-0.100000)"
fill="#000000" stroke="none">
<path d="M5869 8808 c-1459 -2191 -3377 -5069 -4261 -6395 l-1608 -2413 920 0
920 0 0 200 0 200 25 0 25 0 0 -200 0 -200 640 0 640 0 2 198 c3 196 3 197 26
200 l22 3 0 -200 0 -201 645 0 645 0 0 201 0 200 23 -3 c22 -3 22 -4 25 -200
l2 -198 640 0 640 0 0 200 0 200 25 0 25 0 0 -200 0 -200 640 0 640 0 0 200 0
200 25 0 25 0 0 -200 0 -200 655 0 655 0 0 655 0 655 -205 0 -205 0 0 25 0 25
205 0 205 0 0 640 0 640 -202 2 c-202 3 -203 3 -206 25 l-3 23 205 0 206 0 0
645 0 645 -205 0 c-198 0 -205 1 -205 20 0 19 7 20 205 20 l205 0 0 645 0 645
-205 0 -205 0 0 25 0 25 205 0 205 0 0 640 0 640 -205 0 -205 0 0 25 0 25 205
0 205 0 0 645 0 645 -195 0 c-188 0 -195 1 -195 20 0 19 7 20 195 20 l195 0 0
645 0 645 -205 0 -205 0 0 25 0 25 205 0 205 0 0 640 0 640 -205 0 -205 0 0
25 0 25 205 0 205 0 0 1050 c0 578 -2 1050 -4 1050 -2 0 -1197 -1792 -2657
-3982z m1326 -7465 c-3 -10 -466 -13 -2266 -13 -1320 0 -2259 4 -2257 9 2 5
1020 1534 2263 3399 l2260 3390 3 -3386 c1 -1863 0 -3393 -3 -3399z"/>
</g>
</svg>
